<svg width="56" height="56" viewBox="0 0 56 56" fill="none" xmlns="http://www.w3.org/2000/svg">
<path d="M16.3333 21H7V11.6667C7 7 11.6667 7 11.6667 7C11.6667 7 16.3333 7 16.3333 11.6667" stroke="#666666" stroke-width="1.5" stroke-linecap="round" stroke-linejoin="round"/>
<path d="M28 32.6666L31.5 37.3333M31.5 37.3333L35 32.6666M31.5 37.3333C30.5888 37.3333 28 37.3333 28 37.3333M31.5 37.3333C32.4112 37.3333 35 37.3333 35 37.3333M31.5 37.3333V40.8333M31.5 40.8333H35M31.5 40.8333H28M31.5 40.8333V44.3333" stroke="#666666" stroke-width="1.5" stroke-linecap="round" stroke-linejoin="round"/>
<path d="M24.5 19.8334H38.5" stroke="#666666" stroke-width="1.5" stroke-linecap="round" stroke-linejoin="round"/>
<path d="M24.5 14H31.5" stroke="#666666" stroke-width="1.5" stroke-linecap="round" stroke-linejoin="round"/>
<path d="M24.5 25.6666H38.5" stroke="#666666" stroke-width="1.5" stroke-linecap="round" stroke-linejoin="round"/>
<path d="M11.6661 7H41.6662C44.4276 7 46.6662 9.23858 46.6662 12V47C46.6662 48.1046 45.7708 49 44.6662 49H18.3329C17.2283 49 16.3329 48.1046 16.3329 47V11.6667" stroke="#666666" stroke-width="1.5" stroke-linecap="round" stroke-linejoin="round"/>
</svg>
