<svg width="178" height="162" viewBox="0 0 178 162" fill="none" xmlns="http://www.w3.org/2000/svg">
<path d="M0.469666 131.47C0.176773 131.763 0.176773 132.237 0.469665 132.53L5.24264 137.303C5.53554 137.596 6.0104 137.596 6.3033 137.303C6.59619 137.01 6.59619 136.536 6.3033 136.243L2.06065 132L6.3033 127.757C6.59619 127.464 6.59619 126.99 6.3033 126.697C6.01041 126.404 5.53554 126.404 5.24265 126.697L0.469666 131.47ZM177 131.25L1 131.25L1 132.75L177 132.75L177 131.25Z" fill="#3D97EB"/>
<path d="M177.53 155.47C177.823 155.763 177.823 156.237 177.53 156.53L172.757 161.303C172.464 161.596 171.99 161.596 171.697 161.303C171.404 161.01 171.404 160.536 171.697 160.243L175.939 156L171.697 151.757C171.404 151.464 171.404 150.99 171.697 150.697C171.99 150.404 172.464 150.404 172.757 150.697L177.53 155.47ZM1 155.25L177 155.25L177 156.75L1 156.75L1 155.25Z" fill="#3D97EB"/>
<path d="M58.04 94.4L56.06 92.78C55.62 92.92 54.96 93 54.18 93C52.04 93 44.36 93 43.1 93C42.4 93 41.32 92.9 40.78 92.8V95.62C41.2 95.56 42.28 95.46 43.1 95.46C44.62 95.46 51.9 95.46 53.66 95.46C52.62 97.3 50.38 100.02 47.74 101.86L49.74 103.7C52.84 101.42 55.8 97.82 57.36 95.24C57.52 95 57.76 94.72 58.04 94.4ZM47.5 104C48.8 105.32 50.48 107.2 51.3 108.32L53.66 106.44C52.7 105.28 51.12 103.62 49.8 102.34C48.28 100.88 46.28 99.26 45.2 98.44L43.1 100.16C44.28 101 46.32 102.82 47.5 104ZM69.08 95.14L66.72 95.92C67.2 96.96 68.08 99.38 68.34 100.34L70.72 99.52C70.44 98.6 69.46 95.98 69.08 95.14ZM76.46 96.58L73.66 95.68C73.44 98.2 72.46 100.86 71.1 102.54C69.46 104.62 66.66 106.14 64.48 106.74L66.58 108.88C68.92 107.98 71.4 106.32 73.26 103.9C74.62 102.16 75.48 100.08 76 98.06C76.12 97.66 76.24 97.24 76.46 96.58ZM64.44 96.18L62.04 97.06C62.52 97.92 63.54 100.6 63.86 101.66L66.3 100.76C65.92 99.64 64.94 97.2 64.44 96.18ZM82.04 92.64L82.68 94.96C84.42 94.92 87.36 94.84 89.64 94.52C91.18 94.3 92.78 94.04 94.02 93.72C94.34 93.64 94.88 93.5 95.56 93.32L93.9 91.12C92.9 91.6 90.88 92.04 88.86 92.34C86.66 92.66 83.58 92.68 82.04 92.64ZM82.9 106.44L85.46 108.16C89.32 105.84 90.64 102.42 90.64 98.38C90.64 98.38 90.64 95.72 90.64 94L88.02 94.3C88.02 97.14 88.02 98.44 88.02 98.44C88.02 102.18 86.44 104.82 82.9 106.44ZM80.54 97.44V100.02C81.06 99.98 81.8 99.94 82.42 99.94C83.6 99.94 94.48 99.94 95.74 99.94C96.3 99.94 96.96 99.98 97.5 100.02V97.44C97.06 97.48 96.12 97.54 95.7 97.54C94.36 97.54 83.66 97.54 82.4 97.54C81.76 97.54 81.1 97.48 80.54 97.44ZM103.82 91.8L101.92 93.82C103.38 94.82 105.9 97 106.94 98.12L108.98 96.04C107.8 94.82 105.2 92.74 103.82 91.8ZM101.3 105.12L103 107.76C105.8 107.28 108.38 106.18 110.42 104.96C113.64 103.02 116.3 100.26 117.8 97.54L116.26 94.74C114.98 97.44 112.38 100.48 108.96 102.52C107.02 103.66 104.44 104.68 101.3 105.12ZM134.58 90.62L132.98 91.28C133.52 92.04 134.14 93.24 134.56 94.06L136.16 93.36C135.78 92.62 135.08 91.36 134.58 90.62ZM136.94 89.72L135.36 90.38C135.9 91.12 136.54 92.3 136.96 93.12L138.56 92.44C138.2 91.74 137.46 90.48 136.94 89.72ZM136.36 95.02L134.32 93.76C133.86 93.92 133.2 94 132.58 94C131.94 94 127.76 94 126.86 94L125.94 96.28H132.68C132.36 97.76 131.2 100.16 129.84 101.72C128.1 103.7 125.88 105.44 121.78 106.68L124.14 108.78C127.9 107.3 130.32 105.46 132.22 103.14C134.02 100.92 135.16 98.24 135.7 96.46C135.86 95.96 136.14 95.42 136.36 95.02ZM129.84 91.86L126.92 90.9C126.74 91.58 126.32 92.52 126.02 93C125.02 94.72 123.28 97.3 119.76 99.44L122.02 101.1C124.88 99.14 127.28 96.32 128.62 93.9C128.86 93.48 129.38 92.56 129.84 91.86Z" fill="#333333"/>
<path d="M101 28L85 44L77 36" stroke="#3D97EB" stroke-width="1.5" stroke-linecap="round" stroke-linejoin="round"/>
<circle cx="89" cy="36" r="30" stroke="#3D97EB" stroke-width="1.5" stroke-linecap="round" stroke-linejoin="round"/>
</svg>
