<svg width="40" height="40" viewBox="0 0 40 40" fill="none" xmlns="http://www.w3.org/2000/svg">
<rect x="1.66669" y="6.66663" width="36.6667" height="20" stroke="#666666" stroke-width="1.5" stroke-linecap="round" stroke-linejoin="round"/>
<ellipse cx="20" cy="16.6666" rx="5" ry="5.83333" stroke="#666666" stroke-width="1.5" stroke-linecap="round" stroke-linejoin="round"/>
<ellipse cx="20" cy="23.3333" rx="3.33333" ry="0.833333" stroke="#666666" stroke-width="1.5" stroke-linecap="round" stroke-linejoin="round"/>
<ellipse cx="20" cy="9.99996" rx="3.33333" ry="0.833333" stroke="#666666" stroke-width="1.5" stroke-linecap="round" stroke-linejoin="round"/>
<path d="M35 15C35 16.8409 33.5076 20 31.6666 20C29.8257 20 28.3333 16.8409 28.3333 15C28.3333 13.159 29.8257 11.6666 31.6666 11.6666C33.5076 11.6666 35 13.159 35 15Z" stroke="#666666" stroke-width="1.5" stroke-linecap="round" stroke-linejoin="round"/>
<path d="M30 19.1666L27.5 21.6666" stroke="#666666" stroke-width="1.5" stroke-linecap="round" stroke-linejoin="round"/>
<path d="M33.3333 19.1666L35.8333 21.6666" stroke="#666666" stroke-width="1.5" stroke-linecap="round" stroke-linejoin="round"/>
<path d="M5 13.3333H11.6667" stroke="#666666" stroke-width="1.5" stroke-linecap="round" stroke-linejoin="round"/>
<path d="M5 16.6666H11.6667" stroke="#666666" stroke-width="1.5" stroke-linecap="round" stroke-linejoin="round"/>
<path d="M6.66669 20H10" stroke="#666666" stroke-width="1.5" stroke-linecap="round" stroke-linejoin="round"/>
<path d="M38.3334 30H1.66669" stroke="#666666" stroke-width="1.5" stroke-linecap="round" stroke-linejoin="round"/>
<path d="M38.3334 33.3333H1.66669" stroke="#666666" stroke-width="1.5" stroke-linecap="round" stroke-linejoin="round"/>
</svg>
