<svg width="40" height="40" viewBox="0 0 40 40" fill="none" xmlns="http://www.w3.org/2000/svg">
<path d="M25.9521 25.0001C32.3955 25.0001 37.6188 19.7767 37.6188 13.3334C37.6188 6.89009 32.3955 1.66675 25.9521 1.66675C20.0747 1.66675 15.2123 6.01292 14.4036 11.6667" stroke="#666666" stroke-width="1.5" stroke-linecap="round" stroke-linejoin="round"/>
<ellipse cx="25.9524" cy="13.3337" rx="1.16667" ry="1.16667" stroke="#666666" stroke-width="1.5" stroke-linecap="round" stroke-linejoin="round"/>
<path d="M27.1185 14.4998L30.6185 17.9998" stroke="#666666" stroke-width="1.5" stroke-linecap="round" stroke-linejoin="round"/>
<path d="M21.5771 6.04175L25.0771 12.1039" stroke="#666666" stroke-width="1.5" stroke-linecap="round" stroke-linejoin="round"/>
<path d="M25.9521 1.66675V5.16675" stroke="#666666" stroke-width="1.5" stroke-linecap="round" stroke-linejoin="round"/>
<path d="M20.1186 3.22961L20.7019 4.23998" stroke="#666666" stroke-width="1.5" stroke-linecap="round" stroke-linejoin="round"/>
<path d="M15.8483 7.5L16.8586 8.08333" stroke="#666666" stroke-width="1.5" stroke-linecap="round" stroke-linejoin="round"/>
<path d="M25.9521 25.0001V21.5001" stroke="#666666" stroke-width="1.5" stroke-linecap="round" stroke-linejoin="round"/>
<path d="M31.7858 23.4371L31.2024 22.4268" stroke="#666666" stroke-width="1.5" stroke-linecap="round" stroke-linejoin="round"/>
<path d="M36.0561 19.1667L35.0457 18.5834" stroke="#666666" stroke-width="1.5" stroke-linecap="round" stroke-linejoin="round"/>
<path d="M37.6186 13.3335H34.1186" stroke="#666666" stroke-width="1.5" stroke-linecap="round" stroke-linejoin="round"/>
<path d="M36.0561 7.5L35.0457 8.08333" stroke="#666666" stroke-width="1.5" stroke-linecap="round" stroke-linejoin="round"/>
<path d="M31.7858 3.22961L31.2024 4.23998" stroke="#666666" stroke-width="1.5" stroke-linecap="round" stroke-linejoin="round"/>
<circle cx="13.2143" cy="21.7857" r="6.78571" stroke="#666666" stroke-width="1.5" stroke-linecap="round" stroke-linejoin="round"/>
<path d="M22.1428 37.8571C22.1428 32.7288 17.9855 28.5714 12.8571 28.5714C7.72877 28.5714 3.57141 32.7288 3.57141 37.8571" stroke="#666666" stroke-width="1.5" stroke-linecap="round" stroke-linejoin="round"/>
</svg>
