<svg width="1088" height="160" viewBox="0 0 1088 160" fill="none" xmlns="http://www.w3.org/2000/svg">
<mask id="mask0_2102_26251" style="mask-type:alpha" maskUnits="userSpaceOnUse" x="0" y="0" width="1088" height="160">
<rect width="1088" height="160" fill="#D9D9D9"/>
</mask>
<g mask="url(#mask0_2102_26251)">
<g filter="url(#filter0_d_2102_26251)">
<path d="M456 24C456 10.7452 466.745 0 480 0H608C621.255 0 632 10.7452 632 24V152C632 165.255 621.255 176 608 176H480C466.745 176 456 165.255 456 152V24Z" fill="white"/>
<mask id="mask1_2102_26251" style="mask-type:alpha" maskUnits="userSpaceOnUse" x="456" y="0" width="176" height="176">
<path d="M456 24C456 10.7452 466.745 0 480 0H608C621.255 0 632 10.7452 632 24V152C632 165.255 621.255 176 608 176H480C466.745 176 456 165.255 456 152V24Z" fill="white"/>
</mask>
<g mask="url(#mask1_2102_26251)">
<path fill-rule="evenodd" clip-rule="evenodd" d="M386.065 81.1436C386.065 81.1423 386.065 81.141 386.065 81.1398C386.065 75.6681 381.629 71.2325 376.157 71.2325C370.686 71.2325 366.25 75.6681 366.25 81.1398C366.25 81.141 366.25 81.1423 366.25 81.1436H360.153C360.153 81.1423 360.153 81.141 360.153 81.1398C360.153 72.301 367.319 65.1357 376.157 65.1357C381.486 65.1357 386.207 67.7404 389.116 71.746C392.025 67.7404 396.745 65.1357 402.074 65.1357C407.401 65.1357 412.12 67.7383 415.029 71.7413C417.938 67.7383 422.658 65.1357 427.984 65.1357C433.311 65.1357 438.029 67.7374 440.938 71.7393C443.847 67.7374 448.566 65.1357 453.892 65.1357C462.731 65.1357 469.896 72.301 469.896 81.1398C469.896 81.141 469.896 81.1423 469.896 81.1436H463.799C463.799 81.1423 463.799 81.141 463.799 81.1398C463.799 75.6681 459.363 71.2325 453.892 71.2325C448.495 71.2325 444.107 75.547 443.987 80.9147C443.988 80.9896 443.989 81.0646 443.989 81.1398C443.989 81.141 443.989 81.1423 443.989 81.1436H437.888C437.888 81.1423 437.888 81.141 437.888 81.1398C437.888 81.0646 437.888 80.9896 437.889 80.9147C437.77 75.547 433.381 71.2325 427.984 71.2325C422.553 71.2325 418.142 75.6041 418.078 81.021C418.078 81.0605 418.078 81.1001 418.078 81.1398L418.078 81.1436H411.98C411.98 81.1423 411.98 81.141 411.98 81.1398C411.98 81.1001 411.981 81.0605 411.981 81.021C411.917 75.6041 407.506 71.2325 402.074 71.2325C396.603 71.2325 392.167 75.6681 392.167 81.1398C392.167 81.141 392.167 81.1423 392.167 81.1436H386.065Z" fill="#5AD0FF"/>
<path fill-rule="evenodd" clip-rule="evenodd" d="M386.065 110.864C386.065 110.863 386.065 110.862 386.065 110.86C386.065 105.389 381.629 100.953 376.157 100.953C370.686 100.953 366.25 105.389 366.25 110.86C366.25 110.862 366.25 110.863 366.25 110.864H360.153C360.153 110.863 360.153 110.862 360.153 110.86C360.153 102.022 367.319 94.8564 376.157 94.8564C381.486 94.8564 386.207 97.4611 389.116 101.467C392.025 97.4611 396.745 94.8564 402.074 94.8564C407.401 94.8564 412.12 97.459 415.029 101.462C417.938 97.459 422.658 94.8564 427.984 94.8564C433.311 94.8564 438.029 97.4581 440.938 101.46C443.847 97.4581 448.566 94.8564 453.892 94.8564C462.731 94.8564 469.896 102.022 469.896 110.86C469.896 110.862 469.896 110.863 469.896 110.864H463.799C463.799 110.863 463.799 110.862 463.799 110.86C463.799 105.389 459.363 100.953 453.892 100.953C448.495 100.953 444.107 105.268 443.987 110.635C443.988 110.71 443.989 110.785 443.989 110.86C443.989 110.862 443.989 110.863 443.989 110.864H437.888C437.888 110.863 437.888 110.862 437.888 110.86C437.888 110.785 437.888 110.71 437.889 110.635C437.77 105.268 433.381 100.953 427.984 100.953C422.553 100.953 418.142 105.325 418.078 110.742C418.078 110.781 418.078 110.821 418.078 110.86L418.078 110.864H411.98C411.98 110.863 411.98 110.862 411.98 110.86C411.98 110.821 411.981 110.781 411.981 110.742C411.917 105.325 407.506 100.953 402.074 100.953C396.603 100.953 392.167 105.389 392.167 110.86C392.167 110.862 392.167 110.863 392.167 110.864H386.065Z" fill="#5AD0FF"/>
<path fill-rule="evenodd" clip-rule="evenodd" d="M663.641 110.861H599.623L641.919 65.1348L673.643 99.4301L686.501 84.7354L709.363 110.864H663.638L663.641 110.861Z" fill="#45D1D1"/>
<path fill-rule="evenodd" clip-rule="evenodd" d="M663.619 0H553.877V45.7258H563.023V13.7225H585.886V45.7258H597.319V13.7225H620.181V45.7258H631.612V13.7225H654.474V45.7258H663.619V0Z" fill="#FECF05"/>
<path fill-rule="evenodd" clip-rule="evenodd" d="M461.306 130.272H424.726V153.136V175.998V175.999H534.467V153.136H461.306V130.272Z" fill="#3D97EB"/>
<rect x="576.74" y="130.272" width="64.0161" height="9.14516" fill="#B492FF"/>
<rect x="563.022" y="148.564" width="91.4516" height="9.14516" fill="#B492FF"/>
<path fill-rule="evenodd" clip-rule="evenodd" d="M424.724 45.7275H534.466C530.052 19.7753 507.165 0 479.595 0C452.025 0 429.138 19.7753 424.724 45.7275Z" fill="#F0513E"/>
</g>
<path d="M488.006 110.689C485.304 110.689 483.135 110.05 481.5 108.771C479.9 107.525 479.1 105.859 479.1 103.773C479.1 103.436 479.117 103.167 479.153 102.965H485.18C485.144 103.806 485.393 104.48 485.926 104.984C486.495 105.489 487.26 105.742 488.22 105.742H492.913C494.335 105.742 495.526 105.27 496.486 104.328C497.446 103.386 498.069 102.09 498.353 100.441L498.886 97.5633C497.962 98.4047 496.966 99.0778 495.9 99.5826C494.869 100.054 493.909 100.289 493.02 100.289H489.34C486.495 100.289 484.237 99.5826 482.566 98.1691C480.895 96.7555 480.06 94.854 480.06 92.4644C480.06 92.0942 480.131 91.4379 480.273 90.4956L481.233 85.0938C481.837 81.8965 483.189 79.3892 485.286 77.5718C487.384 75.7544 489.997 74.8457 493.126 74.8457H496.433C497.82 74.8457 499.1 75.1317 500.273 75.7039C501.482 76.2424 502.371 76.966 502.94 77.8747L503.42 75.2495H509.18L504.486 100.441C503.882 103.672 502.531 106.179 500.433 107.963C498.371 109.78 495.793 110.689 492.7 110.689H488.006ZM493.713 95.342C495.206 95.342 496.575 94.7699 497.82 93.6256C499.1 92.4813 499.971 91.0004 500.433 89.183L501.286 84.7909C501.393 83.3437 501.055 82.1658 500.273 81.2571C499.491 80.3147 498.424 79.8435 497.073 79.8435H493.34C491.775 79.8435 490.442 80.3484 489.34 81.358C488.273 82.3677 487.597 83.7308 487.313 85.4472L486.46 90.1422C486.389 90.4451 486.353 90.8826 486.353 91.4548C486.353 92.6664 486.673 93.6256 487.313 94.3323C487.953 95.0054 488.842 95.342 489.98 95.342H493.713Z" fill="#333333"/>
<path d="M517.323 75.2495H523.029L522.389 78.6824C523.349 77.6054 524.505 76.7472 525.856 76.1077C527.207 75.4683 528.594 75.1486 530.016 75.1486H533.429L532.469 80.1969H529.269C527.243 80.1969 525.5 80.7859 524.043 81.9638C522.585 83.1418 521.678 84.6731 521.323 86.5579L518.763 100.441H512.629L517.323 75.2495Z" fill="#333333"/>
<path d="M543.531 100.845C540.437 100.845 538.002 100.172 536.224 98.8254C534.446 97.4455 533.557 95.5944 533.557 93.2722C533.557 92.7 533.611 92.111 533.717 91.5052L534.944 84.7404C535.513 81.6441 536.864 79.2209 538.997 77.4708C541.166 75.7207 543.868 74.8457 547.104 74.8457H551.371C554.322 74.8457 556.669 75.5693 558.411 77.0165C560.153 78.4636 561.024 80.382 561.024 82.7716C561.024 83.3101 560.971 83.9159 560.864 84.589L559.957 89.6878H540.117L539.797 91.5052C539.762 91.7072 539.744 91.9933 539.744 92.3635C539.744 93.4741 540.1 94.3492 540.811 94.9886C541.522 95.6281 542.5 95.9478 543.744 95.9478H547.904C549.397 95.9478 550.624 95.6281 551.584 94.9886C552.544 94.3492 553.131 93.4741 553.344 92.3635H559.317C558.855 95.0223 557.593 97.1089 555.531 98.6234C553.504 100.104 550.908 100.845 547.744 100.845H543.531ZM554.731 85.3462L554.837 84.69C554.909 84.3871 554.944 83.9832 554.944 83.4784C554.944 82.3004 554.606 81.3749 553.931 80.7018C553.255 80.0286 552.331 79.6921 551.157 79.6921H546.784C545.326 79.6921 544.064 80.1633 542.997 81.1056C541.966 82.0143 541.291 83.2596 540.971 84.8414L540.864 85.3462H554.731Z" fill="#333333"/>
<path d="M570.756 80.2474H566.17L567.076 75.2495H571.663L572.036 73.4826C572.57 70.6555 573.796 68.5184 575.716 67.0712C577.672 65.624 580.267 64.9004 583.503 64.9004H586.703L585.743 69.8478H582.65C581.405 69.8478 580.41 70.1339 579.663 70.706C578.916 71.2445 578.401 72.1869 578.116 73.5331L577.796 75.2495H584.196L583.29 80.2474H576.89L573.103 100.441H566.97L570.756 80.2474Z" fill="#333333"/>
<path d="M591.933 80.2474H587.347L588.253 75.2495H592.84L593.213 73.4826C593.747 70.6555 594.973 68.5184 596.893 67.0712C598.849 65.624 601.445 64.9004 604.68 64.9004H607.88L606.92 69.8478H603.827C602.582 69.8478 601.587 70.1339 600.84 70.706C600.093 71.2445 599.578 72.1869 599.293 73.5331L598.973 75.2495H605.373L604.467 80.2474H598.067L594.28 100.441H588.147L591.933 80.2474Z" fill="#333333"/>
</g>
<g filter="url(#filter1_d_2102_26251)">
<path d="M656 72C656 63.1634 663.163 56 672 56H760C768.837 56 776 63.1634 776 72V160C776 168.837 768.837 176 760 176H672C663.163 176 656 168.837 656 160V72Z" fill="white"/>
</g>
<g filter="url(#filter2_d_2102_26251)">
<path d="M312 72C312 63.1634 319.163 56 328 56H416C424.837 56 432 63.1634 432 72V160C432 168.837 424.837 176 416 176H328C319.163 176 312 168.837 312 160V72Z" fill="white"/>
</g>
<g filter="url(#filter3_d_2102_26251)">
<path d="M800 72C800 63.1634 807.163 56 816 56H904C912.837 56 920 63.1634 920 72V160C920 168.837 912.837 176 904 176H816C807.163 176 800 168.837 800 160V72Z" fill="white"/>
</g>
<g filter="url(#filter4_d_2102_26251)">
<path d="M944 72C944 63.1634 951.163 56 960 56H1048C1056.84 56 1064 63.1634 1064 72V160C1064 168.837 1056.84 176 1048 176H960C951.163 176 944 168.837 944 160V72Z" fill="white"/>
</g>
<g filter="url(#filter5_d_2102_26251)">
<path d="M168 72C168 63.1634 175.163 56 184 56H272C280.837 56 288 63.1634 288 72V160C288 168.837 280.837 176 272 176H184C175.163 176 168 168.837 168 160V72Z" fill="white"/>
</g>
<g filter="url(#filter6_d_2102_26251)">
<path d="M24 72C24 63.1634 31.1634 56 40 56H128C136.837 56 144 63.1634 144 72V160C144 168.837 136.837 176 128 176H40C31.1634 176 24 168.837 24 160V72Z" fill="white"/>
</g>
<path d="M731.674 123.674C723.017 132.331 708.982 132.331 700.325 123.674C691.669 115.018 691.669 100.982 700.325 92.3258C708.982 83.6692 723.017 83.6692 731.674 92.3258C740.33 100.982 740.33 115.018 731.674 123.674ZM731.674 123.674L740.5 132.5" stroke="#45D1D1" stroke-width="1.5" stroke-linecap="round" stroke-linejoin="round"/>
<ellipse cx="715.995" cy="101.663" rx="7.41658" ry="7.41658" fill="#45D1D1" stroke="#45D1D1" stroke-linecap="round" stroke-linejoin="round"/>
<path d="M715.997 109.079C710.263 109.079 705.614 113.727 705.614 119.462H726.381C726.381 113.727 721.732 109.079 715.997 109.079Z" fill="#45D1D1" stroke="#45D1D1" stroke-linecap="round" stroke-linejoin="round"/>
<path d="M876.525 117.328C878.369 117.229 879.833 115.702 879.833 113.833C879.833 111.96 878.361 110.43 876.511 110.338C876.397 110.332 876.288 110.288 876.208 110.208C876.011 110.011 876.052 109.683 876.263 109.503C877.02 108.861 877.5 107.903 877.5 106.833C877.5 104.9 875.933 103.333 874 103.333H863.5L865.652 92.5729C865.773 91.9703 865.833 91.3571 865.833 90.7425V87.5834C865.833 84.6839 863.483 82.3334 860.583 82.3334C859.617 82.3334 858.833 83.1169 858.833 84.0834V89.2112C858.833 90.8007 858.292 92.3429 857.299 93.5841L850.1 102.583C849.721 103.057 849.146 103.333 848.539 103.333H843.5C842.948 103.333 842.5 103.781 842.5 104.333V125.667C842.5 126.219 842.948 126.667 843.5 126.667H848.537C849.173 126.667 849.803 126.788 850.394 127.024L860.809 131.19C861.045 131.285 861.297 131.333 861.552 131.333H871.667C873.6 131.333 875.167 129.766 875.167 127.833C875.167 126.763 874.687 125.806 873.93 125.164C873.718 124.984 873.678 124.655 873.874 124.459C873.955 124.379 874.064 124.335 874.178 124.329C876.028 124.236 877.5 122.707 877.5 120.833C877.5 119.767 877.023 118.813 876.272 118.171C876.064 117.994 876.019 117.675 876.204 117.474C876.286 117.384 876.403 117.335 876.525 117.328Z" fill="#3D97EB"/>
<path d="M228 85.8334L233.451 100.411L249 101.091L236.82 110.78L240.979 125.778L228 117.188L215.021 125.778L219.18 110.78L207 101.091L222.549 100.411L228 85.8334Z" fill="#FECF05" stroke="#FECF05" stroke-linecap="round" stroke-linejoin="round"/>
<path d="M998.163 103.333C993.009 103.333 988.83 99.1545 988.83 93.9998C988.83 88.8452 993.009 84.6665 998.163 84.6665C1002.51 84.6665 1006.17 87.641 1007.2 91.6665" stroke="#B492FF" stroke-width="1.5" stroke-linecap="round" stroke-linejoin="round"/>
<path d="M984.165 117.333C984.165 109.601 990.433 103.333 998.165 103.333" stroke="#B492FF" stroke-width="1.5" stroke-linecap="round" stroke-linejoin="round"/>
<circle cx="1009.83" cy="103.333" r="11.6667" fill="#B492FF" stroke="#B492FF" stroke-linecap="round" stroke-linejoin="round"/>
<path d="M1009.83 115C1000.81 115 993.5 122.313 993.5 131.334H1026.17C1026.17 122.313 1018.85 115 1009.83 115Z" fill="#B492FF" stroke="#B492FF" stroke-linecap="round" stroke-linejoin="round"/>
<rect x="67.668" y="104" width="6" height="6" fill="#F0513E" stroke="#F0513E" stroke-width="1.5" stroke-linecap="round" stroke-linejoin="round"/>
<rect x="67.668" y="113" width="6" height="6" fill="#F0513E" stroke="#F0513E" stroke-width="1.5" stroke-linecap="round" stroke-linejoin="round"/>
<rect x="67.668" y="122" width="6" height="6" fill="#F0513E" stroke="#F0513E" stroke-width="1.5" stroke-linecap="round" stroke-linejoin="round"/>
<path d="M61.8333 98.6664L61.8333 92.6664C61.8333 92.1141 62.281 91.6664 62.8333 91.6664L104 91.6664C104.552 91.6664 105 92.1141 105 92.6664L105 98.6664M61.8333 98.6664L61.8333 131.5C61.8333 132.052 62.281 132.5 62.8333 132.5L104 132.5C104.552 132.5 105 132.052 105 131.5L105 98.6664M61.8333 98.6664L105 98.6664" stroke="#F0513E" stroke-width="1.5" stroke-linecap="round" stroke-linejoin="round"/>
<path d="M96.833 91.6663L96.833 85.833C96.833 83.9 95.266 82.333 93.333 82.333V82.333C91.4 82.333 89.833 83.9 89.833 85.833L89.833 86.9997" stroke="#F0513E" stroke-width="1.5" stroke-linecap="round" stroke-linejoin="round"/>
<path d="M75.833 91.6663L75.833 85.833C75.833 83.9 74.266 82.333 72.333 82.333V82.333C70.4 82.333 68.833 83.9 68.833 85.833L68.833 86.9997" stroke="#F0513E" stroke-width="1.5" stroke-linecap="round" stroke-linejoin="round"/>
<rect x="62" y="92" width="43" height="7" fill="#F0513E"/>
<path d="M355.953 87.0005H355.666C355.757 86.9973 355.853 86.9971 355.953 87.0005H385.666C388.428 87.0005 390.666 89.2391 390.666 92.0005V127.001C390.666 128.105 389.771 129.001 388.666 129.001H362.333C361.228 129.001 360.333 128.105 360.333 127.001V91.6672C360.333 88.0262 357.574 87.0551 355.953 87.0005Z" fill="#5AD0FF"/>
<path d="M355.666 87.0005H385.666C388.428 87.0005 390.666 89.2391 390.666 92.0005V127.001C390.666 128.105 389.771 129.001 388.666 129.001H362.333C361.228 129.001 360.333 128.105 360.333 127.001V91.6672C360.333 87.8005 357.222 86.945 355.666 87.0005Z" stroke="#5AD0FF" stroke-width="1.5" stroke-linecap="round" stroke-linejoin="round"/>
<path d="M372 112.667L375.5 117.333M375.5 117.333L379 112.667M375.5 117.333C374.589 117.333 372 117.333 372 117.333M375.5 117.333C376.411 117.333 379 117.333 379 117.333M375.5 117.333V120.833M375.5 120.833H379M375.5 120.833H372M375.5 120.833V124.333" stroke="white" stroke-width="1.5" stroke-linecap="round" stroke-linejoin="round"/>
<path d="M368.5 99.8334H382.5" stroke="white" stroke-width="1.5" stroke-linecap="round" stroke-linejoin="round"/>
<path d="M368.5 94H375.5" stroke="white" stroke-width="1.5" stroke-linecap="round" stroke-linejoin="round"/>
<path d="M368.5 105.667H382.5" stroke="white" stroke-width="1.5" stroke-linecap="round" stroke-linejoin="round"/>
<path d="M360.333 101H351V91.6667C351 87 355.667 87 355.667 87C355.667 87 360.333 87 360.333 91.6667" stroke="#5AD0FF" stroke-width="1.5" stroke-linecap="round" stroke-linejoin="round"/>
</g>
<defs>
<filter id="filter0_d_2102_26251" x="444" y="-10" width="200" height="200" filterUnits="userSpaceOnUse" color-interpolation-filters="sRGB">
<feFlood flood-opacity="0" result="BackgroundImageFix"/>
<feColorMatrix in="SourceAlpha" type="matrix" values="0 0 0 0 0 0 0 0 0 0 0 0 0 0 0 0 0 0 127 0" result="hardAlpha"/>
<feOffset dy="2"/>
<feGaussianBlur stdDeviation="6"/>
<feComposite in2="hardAlpha" operator="out"/>
<feColorMatrix type="matrix" values="0 0 0 0 0 0 0 0 0 0 0 0 0 0 0 0 0 0 0.12 0"/>
<feBlend mode="normal" in2="BackgroundImageFix" result="effect1_dropShadow_2102_26251"/>
<feBlend mode="normal" in="SourceGraphic" in2="effect1_dropShadow_2102_26251" result="shape"/>
</filter>
<filter id="filter1_d_2102_26251" x="644" y="46" width="144" height="144" filterUnits="userSpaceOnUse" color-interpolation-filters="sRGB">
<feFlood flood-opacity="0" result="BackgroundImageFix"/>
<feColorMatrix in="SourceAlpha" type="matrix" values="0 0 0 0 0 0 0 0 0 0 0 0 0 0 0 0 0 0 127 0" result="hardAlpha"/>
<feOffset dy="2"/>
<feGaussianBlur stdDeviation="6"/>
<feComposite in2="hardAlpha" operator="out"/>
<feColorMatrix type="matrix" values="0 0 0 0 0 0 0 0 0 0 0 0 0 0 0 0 0 0 0.12 0"/>
<feBlend mode="normal" in2="BackgroundImageFix" result="effect1_dropShadow_2102_26251"/>
<feBlend mode="normal" in="SourceGraphic" in2="effect1_dropShadow_2102_26251" result="shape"/>
</filter>
<filter id="filter2_d_2102_26251" x="300" y="46" width="144" height="144" filterUnits="userSpaceOnUse" color-interpolation-filters="sRGB">
<feFlood flood-opacity="0" result="BackgroundImageFix"/>
<feColorMatrix in="SourceAlpha" type="matrix" values="0 0 0 0 0 0 0 0 0 0 0 0 0 0 0 0 0 0 127 0" result="hardAlpha"/>
<feOffset dy="2"/>
<feGaussianBlur stdDeviation="6"/>
<feComposite in2="hardAlpha" operator="out"/>
<feColorMatrix type="matrix" values="0 0 0 0 0 0 0 0 0 0 0 0 0 0 0 0 0 0 0.12 0"/>
<feBlend mode="normal" in2="BackgroundImageFix" result="effect1_dropShadow_2102_26251"/>
<feBlend mode="normal" in="SourceGraphic" in2="effect1_dropShadow_2102_26251" result="shape"/>
</filter>
<filter id="filter3_d_2102_26251" x="788" y="46" width="144" height="144" filterUnits="userSpaceOnUse" color-interpolation-filters="sRGB">
<feFlood flood-opacity="0" result="BackgroundImageFix"/>
<feColorMatrix in="SourceAlpha" type="matrix" values="0 0 0 0 0 0 0 0 0 0 0 0 0 0 0 0 0 0 127 0" result="hardAlpha"/>
<feOffset dy="2"/>
<feGaussianBlur stdDeviation="6"/>
<feComposite in2="hardAlpha" operator="out"/>
<feColorMatrix type="matrix" values="0 0 0 0 0 0 0 0 0 0 0 0 0 0 0 0 0 0 0.12 0"/>
<feBlend mode="normal" in2="BackgroundImageFix" result="effect1_dropShadow_2102_26251"/>
<feBlend mode="normal" in="SourceGraphic" in2="effect1_dropShadow_2102_26251" result="shape"/>
</filter>
<filter id="filter4_d_2102_26251" x="932" y="46" width="144" height="144" filterUnits="userSpaceOnUse" color-interpolation-filters="sRGB">
<feFlood flood-opacity="0" result="BackgroundImageFix"/>
<feColorMatrix in="SourceAlpha" type="matrix" values="0 0 0 0 0 0 0 0 0 0 0 0 0 0 0 0 0 0 127 0" result="hardAlpha"/>
<feOffset dy="2"/>
<feGaussianBlur stdDeviation="6"/>
<feComposite in2="hardAlpha" operator="out"/>
<feColorMatrix type="matrix" values="0 0 0 0 0 0 0 0 0 0 0 0 0 0 0 0 0 0 0.12 0"/>
<feBlend mode="normal" in2="BackgroundImageFix" result="effect1_dropShadow_2102_26251"/>
<feBlend mode="normal" in="SourceGraphic" in2="effect1_dropShadow_2102_26251" result="shape"/>
</filter>
<filter id="filter5_d_2102_26251" x="156" y="46" width="144" height="144" filterUnits="userSpaceOnUse" color-interpolation-filters="sRGB">
<feFlood flood-opacity="0" result="BackgroundImageFix"/>
<feColorMatrix in="SourceAlpha" type="matrix" values="0 0 0 0 0 0 0 0 0 0 0 0 0 0 0 0 0 0 127 0" result="hardAlpha"/>
<feOffset dy="2"/>
<feGaussianBlur stdDeviation="6"/>
<feComposite in2="hardAlpha" operator="out"/>
<feColorMatrix type="matrix" values="0 0 0 0 0 0 0 0 0 0 0 0 0 0 0 0 0 0 0.12 0"/>
<feBlend mode="normal" in2="BackgroundImageFix" result="effect1_dropShadow_2102_26251"/>
<feBlend mode="normal" in="SourceGraphic" in2="effect1_dropShadow_2102_26251" result="shape"/>
</filter>
<filter id="filter6_d_2102_26251" x="12" y="46" width="144" height="144" filterUnits="userSpaceOnUse" color-interpolation-filters="sRGB">
<feFlood flood-opacity="0" result="BackgroundImageFix"/>
<feColorMatrix in="SourceAlpha" type="matrix" values="0 0 0 0 0 0 0 0 0 0 0 0 0 0 0 0 0 0 127 0" result="hardAlpha"/>
<feOffset dy="2"/>
<feGaussianBlur stdDeviation="6"/>
<feComposite in2="hardAlpha" operator="out"/>
<feColorMatrix type="matrix" values="0 0 0 0 0 0 0 0 0 0 0 0 0 0 0 0 0 0 0.12 0"/>
<feBlend mode="normal" in2="BackgroundImageFix" result="effect1_dropShadow_2102_26251"/>
<feBlend mode="normal" in="SourceGraphic" in2="effect1_dropShadow_2102_26251" result="shape"/>
</filter>
</defs>
</svg>
