<svg width="32" height="32" viewBox="0 0 32 32" fill="none" xmlns="http://www.w3.org/2000/svg">
<path d="M25.4426 21.3304C26.4963 21.2737 27.3333 20.4012 27.3333 19.3333C27.3333 18.2628 26.4923 17.3887 25.4349 17.3358C25.3699 17.3326 25.3075 17.3075 25.2615 17.2615C25.1493 17.1493 25.1724 16.9616 25.2934 16.8589C25.7257 16.492 26 15.9447 26 15.3333C26 14.2287 25.1046 13.3333 24 13.3333H18L19.2298 7.18449C19.2986 6.84011 19.3333 6.48975 19.3333 6.13854V4.33331C19.3333 2.67646 17.9902 1.33331 16.3333 1.33331C15.781 1.33331 15.3333 1.78103 15.3333 2.33331V5.26352C15.3333 6.17181 15.0242 7.05305 14.4568 7.7623L10.6005 12.5827C10.2209 13.0571 9.64632 13.3333 9.03875 13.3333H7C6.44772 13.3333 6 13.781 6 14.3333V25.6666C6 26.2189 6.44772 26.6666 7 26.6666H9.03709C9.67319 26.6666 10.3034 26.788 10.894 27.0243L16.3091 29.1903C16.5453 29.2848 16.7974 29.3333 17.0518 29.3333H22.6667C23.7712 29.3333 24.6667 28.4379 24.6667 27.3333C24.6667 26.7219 24.3923 26.1746 23.9601 25.8078C23.8391 25.7051 23.8159 25.5174 23.9282 25.4051C23.9742 25.3591 24.0366 25.334 24.1016 25.3308C25.1589 25.2779 26 24.4038 26 23.3333C26 22.7242 25.7277 22.1787 25.2982 21.8118C25.1796 21.7106 25.1539 21.5285 25.2594 21.4137C25.3065 21.3625 25.3731 21.3341 25.4426 21.3304Z" fill="#3D97EB"/>
</svg>
