<svg width="72" height="130" viewBox="0 0 72 130" fill="none" xmlns="http://www.w3.org/2000/svg">
<path d="M60.5303 124.53C60.8232 124.237 60.8232 123.763 60.5303 123.47L55.7574 118.697C55.4645 118.404 54.9896 118.404 54.6967 118.697C54.4038 118.99 54.4038 119.464 54.6967 119.757L58.9393 124L54.6967 128.243C54.4038 128.536 54.4038 129.01 54.6967 129.303C54.9896 129.596 55.4645 129.596 55.7574 129.303L60.5303 124.53ZM12 124.75H60L60 123.25H12L12 124.75Z" fill="#3D97EB"/>
<path d="M11.4697 100.53C11.1768 100.237 11.1768 99.7626 11.4697 99.4697L16.2426 94.6967C16.5355 94.4038 17.0104 94.4038 17.3033 94.6967C17.5962 94.9896 17.5962 95.4645 17.3033 95.7574L13.0607 100L17.3033 104.243C17.5962 104.536 17.5962 105.01 17.3033 105.303C17.0104 105.596 16.5355 105.596 16.2426 105.303L11.4697 100.53ZM60 100.75H12L12 99.25H60L60 100.75Z" fill="#3D97EB"/>
<path d="M14.328 65.18L12.942 64.046C12.634 64.144 12.172 64.2 11.626 64.2C10.128 64.2 4.752 64.2 3.87 64.2C3.38 64.2 2.624 64.13 2.246 64.06V66.034C2.54 65.992 3.296 65.922 3.87 65.922C4.934 65.922 10.03 65.922 11.262 65.922C10.534 67.21 8.966 69.114 7.118 70.402L8.518 71.69C10.688 70.094 12.76 67.574 13.852 65.768C13.964 65.6 14.132 65.404 14.328 65.18ZM6.95 71.9C7.86 72.824 9.036 74.14 9.61 74.924L11.262 73.608C10.59 72.796 9.484 71.634 8.56 70.738C7.496 69.716 6.096 68.582 5.34 68.008L3.87 69.212C4.696 69.8 6.124 71.074 6.95 71.9ZM22.056 65.698L20.404 66.244C20.74 66.972 21.356 68.666 21.538 69.338L23.204 68.764C23.008 68.12 22.322 66.286 22.056 65.698ZM27.222 66.706L25.262 66.076C25.108 67.84 24.422 69.702 23.47 70.878C22.322 72.334 20.362 73.398 18.836 73.818L20.306 75.316C21.944 74.686 23.68 73.524 24.982 71.83C25.934 70.612 26.536 69.156 26.9 67.742C26.984 67.462 27.068 67.168 27.222 66.706ZM18.808 66.426L17.128 67.042C17.464 67.644 18.178 69.52 18.402 70.262L20.11 69.632C19.844 68.848 19.158 67.14 18.808 66.426ZM31.128 63.948L31.576 65.572C32.794 65.544 34.852 65.488 36.448 65.264C37.526 65.11 38.646 64.928 39.514 64.704C39.738 64.648 40.116 64.55 40.592 64.424L39.43 62.884C38.73 63.22 37.316 63.528 35.902 63.738C34.362 63.962 32.206 63.976 31.128 63.948ZM31.73 73.608L33.522 74.812C36.224 73.188 37.148 70.794 37.148 67.966C37.148 67.966 37.148 66.104 37.148 64.9L35.314 65.11C35.314 67.098 35.314 68.008 35.314 68.008C35.314 70.626 34.208 72.474 31.73 73.608ZM30.078 67.308V69.114C30.442 69.086 30.96 69.058 31.394 69.058C32.22 69.058 39.836 69.058 40.718 69.058C41.11 69.058 41.572 69.086 41.95 69.114V67.308C41.642 67.336 40.984 67.378 40.69 67.378C39.752 67.378 32.262 67.378 31.38 67.378C30.932 67.378 30.47 67.336 30.078 67.308ZM46.374 63.36L45.044 64.774C46.066 65.474 47.83 67 48.558 67.784L49.986 66.328C49.16 65.474 47.34 64.018 46.374 63.36ZM44.61 72.684L45.8 74.532C47.76 74.196 49.566 73.426 50.994 72.572C53.248 71.214 55.11 69.282 56.16 67.378L55.082 65.418C54.186 67.308 52.366 69.436 49.972 70.864C48.614 71.662 46.808 72.376 44.61 72.684ZM67.906 62.534L66.786 62.996C67.164 63.528 67.598 64.368 67.892 64.942L69.012 64.452C68.746 63.934 68.256 63.052 67.906 62.534ZM69.558 61.904L68.452 62.366C68.83 62.884 69.278 63.71 69.572 64.284L70.692 63.808C70.44 63.318 69.922 62.436 69.558 61.904ZM69.152 65.614L67.724 64.732C67.402 64.844 66.94 64.9 66.506 64.9C66.058 64.9 63.132 64.9 62.502 64.9L61.858 66.496H66.576C66.352 67.532 65.54 69.212 64.588 70.304C63.37 71.69 61.816 72.908 58.946 73.776L60.598 75.246C63.23 74.21 64.924 72.922 66.254 71.298C67.514 69.744 68.312 67.868 68.69 66.622C68.802 66.272 68.998 65.894 69.152 65.614ZM64.588 63.402L62.544 62.73C62.418 63.206 62.124 63.864 61.914 64.2C61.214 65.404 59.996 67.21 57.532 68.708L59.114 69.87C61.116 68.498 62.796 66.524 63.734 64.83C63.902 64.536 64.266 63.892 64.588 63.402Z" fill="#333333"/>
<path d="M44 18.6666L33.3333 29.3333L28 24" stroke="#3D97EB" stroke-width="1.5" stroke-linecap="round" stroke-linejoin="round"/>
<circle cx="36" cy="24" r="20" stroke="#3D97EB" stroke-width="1.5" stroke-linecap="round" stroke-linejoin="round"/>
</svg>
