<svg width="22" height="22" viewBox="0 0 22 22" fill="none" xmlns="http://www.w3.org/2000/svg">
<path d="M4.51031 4.50934L10.3387 4.50934C11.1344 4.50934 11.8975 4.82541 12.4601 5.38802L21.4809 14.4088L14.4098 21.4799L5.38899 12.4591C4.82638 11.8965 4.51031 11.1334 4.51031 10.3378V8.28069M7.69229 7.69132C7.49703 7.88658 7.49703 8.20316 7.69229 8.39842C7.88756 8.59369 8.20414 8.59369 8.3994 8.39842C8.59466 8.20316 8.59466 7.88658 8.3994 7.69132C8.20414 7.49606 7.88756 7.49606 7.69229 7.69132ZM7.69229 7.69132C6.52072 8.86289 4.30464 8.54631 2.74255 6.98421C1.18045 5.42211 0.863867 3.20604 2.03544 2.03446C3.20701 0.86289 5.42309 1.17947 6.98519 2.74157" stroke="#3D97EB" stroke-linecap="round" stroke-linejoin="round"/>
</svg>
