<svg width="32" height="32" viewBox="0 0 32 32" fill="none" xmlns="http://www.w3.org/2000/svg">
<g clip-path="url(#clip0_2494_23300)">
<path d="M24.786 0H7.214C3.22982 0 0 3.22982 0 7.214V24.786C0 28.7702 3.22982 32 7.214 32H24.786C28.7702 32 32 28.7702 32 24.786V7.214C32 3.22982 28.7702 0 24.786 0Z" fill="#06C755"/>
<path d="M26.6661 14.492C26.6661 9.71798 21.8801 5.83398 15.9971 5.83398C10.1141 5.83398 5.32812 9.71798 5.32812 14.492C5.32812 18.772 9.12412 22.356 14.2511 23.034C14.5981 23.109 15.0711 23.263 15.1911 23.56C15.2991 23.83 15.2611 24.252 15.2261 24.525C15.2261 24.525 15.1011 25.278 15.0741 25.438C15.0271 25.708 14.8601 26.493 15.9981 26.013C17.1371 25.533 22.1421 22.395 24.3801 19.819C25.9261 18.123 26.6671 16.403 26.6671 14.492H26.6661Z" fill="white"/>
<path d="M23.1151 17.2488H20.1181C20.0051 17.2488 19.9141 17.1578 19.9141 17.0448V17.0418V12.3938V12.3888C19.9141 12.2758 20.0051 12.1848 20.1181 12.1848H23.1151C23.2271 12.1848 23.3191 12.2768 23.3191 12.3888V13.1458C23.3191 13.2588 23.2281 13.3498 23.1151 13.3498H21.0781V14.1358H23.1151C23.2271 14.1358 23.3191 14.2278 23.3191 14.3398V15.0968C23.3191 15.2098 23.2281 15.3008 23.1151 15.3008H21.0781V16.0868H23.1151C23.2271 16.0868 23.3191 16.1788 23.3191 16.2908V17.0478C23.3191 17.1608 23.2281 17.2518 23.1151 17.2518V17.2488Z" fill="#06C755"/>
<path d="M12.0282 17.2491C12.1402 17.2491 12.2322 17.1581 12.2322 17.0451V16.2881C12.2322 16.1761 12.1402 16.0841 12.0282 16.0841H9.99117V12.3881C9.99117 12.2761 9.89917 12.1841 9.78717 12.1841H9.03017C8.91717 12.1841 8.82617 12.2751 8.82617 12.3881V17.0411V17.0451C8.82617 17.1581 8.91717 17.2491 9.03017 17.2491H12.0272H12.0282Z" fill="#06C755"/>
<path d="M13.833 12.1848H13.077C12.9644 12.1848 12.873 12.2761 12.873 12.3888V17.0448C12.873 17.1575 12.9644 17.2488 13.077 17.2488H13.833C13.9457 17.2488 14.037 17.1575 14.037 17.0448V12.3888C14.037 12.2761 13.9457 12.1848 13.833 12.1848Z" fill="#06C755"/>
<path d="M18.9827 12.1848H18.2257C18.1127 12.1848 18.0217 12.2758 18.0217 12.3888V15.1538L15.8917 12.2768C15.8867 12.2698 15.8807 12.2628 15.8757 12.2558H15.8747C15.8707 12.2498 15.8667 12.2458 15.8627 12.2418L15.8587 12.2388C15.8587 12.2388 15.8517 12.2328 15.8477 12.2298C15.8457 12.2288 15.8437 12.2268 15.8417 12.2258C15.8387 12.2228 15.8347 12.2208 15.8307 12.2188C15.8287 12.2178 15.8267 12.2158 15.8247 12.2148C15.8207 12.2128 15.8177 12.2108 15.8137 12.2088C15.8117 12.2078 15.8097 12.2068 15.8077 12.2058C15.8037 12.2038 15.7997 12.2018 15.7957 12.2008L15.7887 12.1988C15.7887 12.1988 15.7807 12.1958 15.7767 12.1948C15.7747 12.1948 15.7717 12.1938 15.7697 12.1928C15.7657 12.1928 15.7617 12.1908 15.7577 12.1898C15.7547 12.1898 15.7517 12.1898 15.7487 12.1888C15.7447 12.1888 15.7417 12.1878 15.7377 12.1878C15.7337 12.1878 15.7307 12.1878 15.7267 12.1878C15.7247 12.1878 15.7217 12.1878 15.7197 12.1878H14.9677C14.8557 12.1878 14.7637 12.2788 14.7637 12.3918V17.0478C14.7637 17.1598 14.8547 17.2518 14.9677 17.2518H15.7247C15.8377 17.2518 15.9287 17.1608 15.9287 17.0478V14.2828L18.0617 17.1638C18.0767 17.1848 18.0947 17.2018 18.1147 17.2148L18.1167 17.2168C18.1167 17.2168 18.1247 17.2218 18.1297 17.2248C18.1317 17.2258 18.1337 17.2268 18.1357 17.2278C18.1387 17.2298 18.1427 17.2308 18.1457 17.2328C18.1487 17.2348 18.1527 17.2358 18.1557 17.2368C18.1577 17.2368 18.1597 17.2388 18.1617 17.2388C18.1667 17.2408 18.1707 17.2418 18.1757 17.2428H18.1787C18.1957 17.2478 18.2137 17.2508 18.2317 17.2508H18.9837C19.0957 17.2508 19.1877 17.1598 19.1877 17.0468V12.3908C19.1877 12.2788 19.0967 12.1868 18.9837 12.1868L18.9827 12.1848Z" fill="#06C755"/>
</g>
<defs>
<clipPath id="clip0_2494_23300">
<rect width="32" height="32" fill="white"/>
</clipPath>
</defs>
</svg>
