<svg width="66" height="62" viewBox="0 0 66 62" fill="none" xmlns="http://www.w3.org/2000/svg">
<path d="M1 1H47.6667V61H14.3333H1V1Z" stroke="#666666" stroke-width="1.5" stroke-linecap="round" stroke-linejoin="round"/>
<path d="M61.4058 27.2624L61.9361 26.7321L61.4058 27.2624ZM61.4058 41.4046L61.9361 41.9349L61.4058 41.4046ZM53.5849 61.0002C53.5849 61.4144 53.9206 61.7502 54.3349 61.7502C54.7491 61.7502 55.0849 61.4144 55.0849 61.0002H53.5849ZM60.8755 27.7928C64.4878 31.4051 64.4878 37.2619 60.8755 40.8742L61.9361 41.9349C66.1343 37.7368 66.1343 30.9302 61.9361 26.7321L60.8755 27.7928ZM47.794 27.7928C51.4064 24.1804 57.2631 24.1804 60.8755 27.7928L61.9361 26.7321C57.738 22.534 50.9315 22.534 46.7333 26.7321L47.794 27.7928ZM60.8755 40.8742C59.0692 42.6805 56.7033 43.5835 54.3348 43.5835L54.3349 45.0835C57.0848 45.0835 59.8372 44.0338 61.9361 41.9349L60.8755 40.8742ZM54.3348 43.5835C51.9664 43.5835 49.6004 42.6806 47.794 40.8742L46.7333 41.9349C48.8323 44.0338 51.5848 45.0835 54.3349 45.0835L54.3348 43.5835ZM53.5849 44.3335L53.5849 61.0002H55.0849L55.0849 44.3335H53.5849Z" fill="#666666"/>
<path d="M14.3327 11H7.66602" stroke="#666666" stroke-width="1.5" stroke-linecap="round" stroke-linejoin="round"/>
<path d="M14.3327 21H7.66602" stroke="#666666" stroke-width="1.5" stroke-linecap="round" stroke-linejoin="round"/>
<path d="M14.3327 31H7.66602" stroke="#666666" stroke-width="1.5" stroke-linecap="round" stroke-linejoin="round"/>
<path d="M27.6667 11H21" stroke="#666666" stroke-width="1.5" stroke-linecap="round" stroke-linejoin="round"/>
<path d="M27.6667 21H21" stroke="#666666" stroke-width="1.5" stroke-linecap="round" stroke-linejoin="round"/>
<path d="M27.6667 31H21" stroke="#666666" stroke-width="1.5" stroke-linecap="round" stroke-linejoin="round"/>
<path d="M41.0007 11H34.334" stroke="#666666" stroke-width="1.5" stroke-linecap="round" stroke-linejoin="round"/>
<path d="M41.0007 21H34.334" stroke="#666666" stroke-width="1.5" stroke-linecap="round" stroke-linejoin="round"/>
<path d="M41.0007 31H34.334" stroke="#666666" stroke-width="1.5" stroke-linecap="round" stroke-linejoin="round"/>
</svg>
