<svg width="32" height="32" viewBox="0 0 32 32" fill="none" xmlns="http://www.w3.org/2000/svg">
<path d="M4.89361 9.6969C4.34933 9.6969 3.91246 9.56148 3.58302 9.29064C3.26075 9.02692 3.09961 8.67411 3.09961 8.23221C3.09961 8.16093 3.10319 8.10392 3.11035 8.06115H4.32426C4.3171 8.23934 4.36723 8.38189 4.47465 8.4888C4.58924 8.59571 4.74322 8.64917 4.93658 8.64917H5.88193C6.1684 8.64917 6.40831 8.54938 6.60168 8.34981C6.79504 8.15024 6.92037 7.87584 6.97767 7.52659L7.08509 6.91719C6.89889 7.09538 6.69836 7.23793 6.48351 7.34484C6.27582 7.44463 6.08245 7.49452 5.90341 7.49452H5.16218C4.58924 7.49452 4.13447 7.34484 3.79787 7.04549C3.46127 6.74614 3.29298 6.34343 3.29298 5.83739C3.29298 5.75898 3.3073 5.62 3.33595 5.42043L3.52931 4.27647C3.65106 3.59936 3.9232 3.06837 4.34574 2.68349C4.76828 2.2986 5.29467 2.10616 5.9249 2.10616H6.59094C6.87024 2.10616 7.12806 2.16675 7.3644 2.28791C7.6079 2.40195 7.78694 2.55519 7.90152 2.74763L7.99821 2.19169H9.1584L8.21306 7.52659C8.09131 8.21083 7.81917 8.74182 7.39663 9.11958C6.98125 9.50446 6.46202 9.6969 5.83896 9.6969H4.89361ZM6.04307 6.44678C6.34386 6.44678 6.61958 6.32561 6.87024 6.08328C7.12806 5.84095 7.30352 5.52734 7.39663 5.14246L7.56851 4.21233C7.58999 3.90584 7.52196 3.65638 7.3644 3.46394C7.20684 3.26437 6.99199 3.16459 6.71985 3.16459H5.96787C5.65275 3.16459 5.38419 3.2715 5.16218 3.48533C4.94733 3.69915 4.81125 3.98781 4.75396 4.35131L4.58208 5.34559C4.56776 5.40974 4.56059 5.50239 4.56059 5.62356C4.56059 5.88015 4.62505 6.08328 4.75396 6.23296C4.88287 6.37551 5.06191 6.44678 5.29109 6.44678H6.04307Z" fill="white"/>
<path d="M10.7986 2.19169H11.948L11.8191 2.91869C12.0125 2.69061 12.2452 2.50886 12.5174 2.37344C12.7895 2.23802 13.0688 2.17031 13.3553 2.17031H14.0428L13.8495 3.23943H13.2049C12.7967 3.23943 12.4458 3.36416 12.1521 3.61362C11.8585 3.86308 11.6759 4.18738 11.6043 4.58652L11.0886 7.52659H9.85323L10.7986 2.19169Z" fill="white"/>
<path d="M16.0774 7.61212C15.4544 7.61212 14.9638 7.46957 14.6057 7.18447C14.2476 6.89225 14.0686 6.50024 14.0686 6.00844C14.0686 5.88728 14.0793 5.76255 14.1008 5.63425L14.3479 4.20163C14.4625 3.54591 14.7346 3.03273 15.1643 2.6621C15.6012 2.29148 16.1455 2.10616 16.7972 2.10616H17.6566C18.251 2.10616 18.7237 2.2594 19.0746 2.56588C19.4255 2.87236 19.601 3.27863 19.601 3.78468C19.601 3.89872 19.5902 4.02701 19.5688 4.16956L19.3861 5.24937H15.3899L15.3255 5.63425C15.3183 5.67702 15.3147 5.7376 15.3147 5.816C15.3147 6.05121 15.3863 6.23652 15.5296 6.37194C15.6728 6.50737 15.8697 6.57508 16.1204 6.57508H16.9583C17.2591 6.57508 17.5062 6.50737 17.6996 6.37194C17.8929 6.23652 18.0111 6.05121 18.0541 5.816H19.2572C19.1641 6.37907 18.9099 6.82097 18.4945 7.14171C18.0863 7.45532 17.5635 7.61212 16.9261 7.61212H16.0774ZM18.3334 4.32993L18.3549 4.19094C18.3692 4.1268 18.3763 4.04127 18.3763 3.93435C18.3763 3.68489 18.3083 3.48889 18.1722 3.34634C18.0362 3.20379 17.85 3.13252 17.6136 3.13252H16.7327C16.4391 3.13252 16.1849 3.2323 15.97 3.43187C15.7623 3.62431 15.6263 3.88803 15.5618 4.22302L15.5403 4.32993H18.3334Z" fill="white"/>
<path d="M21.5613 3.25012H20.6374L20.82 2.19169H21.7439L21.8191 1.8175C21.9265 1.21879 22.1736 0.766201 22.5603 0.459721C22.9542 0.15324 23.477 0 24.1287 0H24.7733L24.5799 1.04774H23.9568C23.7062 1.04774 23.5057 1.10832 23.3553 1.22949C23.2049 1.34353 23.101 1.54309 23.0437 1.82819L22.9793 2.19169H24.2684L24.0858 3.25012H22.7966L22.0339 7.52659H20.7985L21.5613 3.25012Z" fill="white"/>
<path d="M25.8268 3.25012H24.9029L25.0856 2.19169H26.0094L26.0846 1.8175C26.192 1.21879 26.4391 0.766201 26.8259 0.459721C27.2197 0.15324 27.7425 0 28.3943 0H29.0388L28.8455 1.04774H28.2224C27.9717 1.04774 27.7712 1.10832 27.6208 1.22949C27.4704 1.34353 27.3666 1.54309 27.3093 1.82819L27.2448 2.19169H28.5339L28.3513 3.25012H27.0622L26.2995 7.52659H25.0641L25.8268 3.25012Z" fill="white"/>
<path fill-rule="evenodd" clip-rule="evenodd" d="M9.23951 21.5469C9.23957 20.944 9.72832 20.4553 10.3312 20.4553C10.9338 20.4553 11.4223 20.9434 11.4229 21.5458L11.4229 21.5469H12.0948V21.5458C12.0954 20.9434 12.5839 20.4553 13.1865 20.4553C13.7894 20.4553 14.2781 20.944 14.2782 21.5469H14.95C14.9499 20.5729 14.1604 19.7834 13.1865 19.7834C12.5994 19.7834 12.0794 20.0703 11.7588 20.5114C11.4383 20.0703 10.9183 19.7834 10.3312 19.7834C9.74419 19.7834 9.22415 20.0703 8.90359 20.5114C8.58304 20.0703 8.063 19.7834 7.47597 19.7834C6.88889 19.7834 6.36882 20.0703 6.04827 20.5115C5.72772 20.0704 5.20771 19.7836 4.62072 19.7836C3.64684 19.7836 2.85734 20.573 2.85718 21.5469H3.529C3.52916 20.9441 4.01788 20.4555 4.62072 20.4555C5.22355 20.4555 5.71227 20.9441 5.71243 21.5469H6.38425C6.38431 20.944 6.87307 20.4553 7.47597 20.4553C8.07887 20.4553 8.56762 20.944 8.56768 21.5469H9.23951Z" fill="#5AD0FF"/>
<path fill-rule="evenodd" clip-rule="evenodd" d="M9.23954 24.8222C9.23954 24.8222 9.23954 24.8221 9.23954 24.8221C9.23954 24.2192 9.72832 23.7304 10.3313 23.7304C10.9338 23.7304 11.4223 24.2186 11.423 24.821L11.423 24.8221V24.8222H12.0948V24.8221V24.821C12.0954 24.2186 12.5839 23.7304 13.1865 23.7304C13.7894 23.7304 14.2782 24.2192 14.2782 24.8221C14.2782 24.8221 14.2782 24.8222 14.2782 24.8222H14.95C14.95 24.8222 14.95 24.8221 14.95 24.8221C14.95 23.8482 14.1605 23.0586 13.1865 23.0586C12.5995 23.0586 12.0794 23.3454 11.7589 23.7866C11.4383 23.3454 10.9183 23.0586 10.3313 23.0586C9.74422 23.0586 9.22418 23.3454 8.90363 23.7866C8.58307 23.3454 8.06303 23.0586 7.476 23.0586C6.88892 23.0586 6.36885 23.3455 6.0483 23.7867C5.72775 23.3455 5.20772 23.0587 4.62072 23.0587C3.64678 23.0587 2.85724 23.8482 2.85718 24.8222H3.529C3.52907 24.2193 4.01782 23.7306 4.62072 23.7306C5.22361 23.7306 5.71236 24.2193 5.71243 24.8222H6.38429C6.38429 24.8222 6.38429 24.8221 6.38429 24.8221C6.38429 24.2192 6.87306 23.7304 7.476 23.7304C8.07894 23.7304 8.56771 24.2192 8.56771 24.8221C8.56771 24.8221 8.56771 24.8222 8.56771 24.8222H9.23954Z" fill="#5AD0FF"/>
<path fill-rule="evenodd" clip-rule="evenodd" d="M26.4105 24.822L26.4105 24.8221H17.089L21.7498 19.7834L25.2452 23.5623L26.6623 21.9428L29.1817 24.822H26.4105Z" fill="#45D1D1"/>
<path fill-rule="evenodd" clip-rule="evenodd" d="M29.1818 12.6062H17.089V17.6449H29.1818V12.6062ZM20.6159 14.1174H18.0966V17.6445H20.6159V14.1174ZM24.395 14.1175H21.8756V17.6445H24.395V14.1175ZM25.6548 14.1175H28.1741V17.6445H25.6548V14.1175Z" fill="#FECF05"/>
<path fill-rule="evenodd" clip-rule="evenodd" d="M6.88812 26.9609H2.85718V29.4805V31.9996V31.9998H14.95V29.4805H6.88812V26.9609Z" fill="#3D97EB"/>
<rect x="17.0887" y="30.9924" width="12.0928" height="1.00773" fill="#B492FF"/>
<rect x="19.608" y="26.9612" width="7.05415" height="1.00774" fill="#B492FF"/>
<rect x="18.0966" y="28.9768" width="10.0774" height="1.00774" fill="#B492FF"/>
<path fill-rule="evenodd" clip-rule="evenodd" d="M15.0346 18.6916C15.0347 18.6786 15.0347 18.6656 15.0347 18.6526C15.0347 18.6396 15.0347 18.6266 15.0346 18.6136V18.6916ZM14.9499 17.6446C14.4633 14.7851 11.9415 12.6062 8.90355 12.6062C5.86564 12.6062 3.34377 14.7851 2.85718 17.6446H14.9499Z" fill="#F0513E"/>
</svg>
