<svg width="24" height="24" viewBox="0 0 24 24" fill="none" xmlns="http://www.w3.org/2000/svg">
<path d="M18.4651 8.47768C18.4651 12.0552 15.565 18.1942 11.9874 18.1942C8.40992 18.1942 5.50977 12.0552 5.50977 8.47768C5.50977 4.90016 7.45307 2 11.9874 2C16.5218 2 18.4651 4.90016 18.4651 8.47768Z" stroke="#333333" stroke-linecap="round"/>
<path d="M18.1412 10.8259V10.8259C18.0269 8.67316 16.0561 7.10467 13.9326 7.47632L13.4156 7.56681C13.0329 7.63377 12.6413 7.63126 12.2596 7.55939V7.55939C10.8237 7.28905 9.74734 6.08953 9.63355 4.63282L9.61133 4.34827" stroke="#333333" stroke-linecap="round"/>
<path d="M9.61289 5.56366C9.12707 6.0225 7.3457 6.77822 7.3457 10.179" stroke="#333333" stroke-linecap="round"/>
<path d="M18.6361 8.47833H19.4135C19.8682 8.47833 20.2367 8.84688 20.2367 9.3015V9.37836C20.2367 10.3659 19.6812 11.2695 18.8 11.7152V11.7152C18.6913 11.7702 18.5907 11.8402 18.5013 11.923L17.4121 12.9317" stroke="#333333"/>
<path d="M5.3441 8.47833H4.57512C4.11986 8.47833 3.75081 8.84739 3.75081 9.30264V9.38482C3.75081 10.3687 4.3033 11.2692 5.18041 11.715V11.715C5.289 11.7701 5.38935 11.8402 5.47853 11.9232L6.5625 12.9317" stroke="#333333"/>
<path d="M8.26311 15.9272L7.91922 16.8443C7.52482 17.896 6.65091 18.6955 5.56831 18.9949V18.9949C4.29126 19.3481 3.32194 20.3904 3.06208 21.6896L3 22C3 20.1304 3.34089 18.5183 4.62525 17.5778C5.11108 17.119 6.54275 16.4209 6.54275 13.0201" stroke="#333333" stroke-linejoin="round"/>
<path d="M15.7115 15.9272L16.0554 16.8442C16.4498 17.896 17.3237 18.6954 18.4063 18.9949V18.9949C19.6833 19.3481 20.6527 20.3903 20.9125 21.6896L20.9746 22" stroke="#333333" stroke-linecap="round" stroke-linejoin="round"/>
</svg>
