<svg width="87" height="32" viewBox="0 0 87 32" fill="none" xmlns="http://www.w3.org/2000/svg">
<g clip-path="url(#clip0_2517_25164)">
<path d="M79.3837 0H7.62063C7.32754 0 7.03797 0 6.74566 0.0016C6.50097 0.0032 6.25823 0.007848 6.01119 0.01176C5.4745 0.0180814 4.93907 0.065341 4.40956 0.153128C3.88079 0.242826 3.36859 0.411933 2.89028 0.654728C2.41255 0.899577 1.97603 1.21773 1.59656 1.59766C1.21511 1.97651 0.897133 2.41441 0.654868 2.89453C0.411935 3.37369 0.243485 3.88715 0.155335 4.41718C0.0663468 4.94655 0.0184615 5.48202 0.0121087 6.01878C0.00469162 6.26406 0.00390835 6.51016 0 6.75547V25.2469C0.00390835 25.4953 0.00469162 25.7359 0.0121087 25.9844C0.0184634 26.5211 0.0663487 27.0566 0.155335 27.5859C0.243242 28.1163 0.411702 28.63 0.654868 29.1094C0.897023 29.5879 1.21504 30.0241 1.59656 30.4008C1.97459 30.7824 2.41139 31.1008 2.89028 31.3438C3.36859 31.5872 3.88074 31.7573 4.40956 31.8484C4.93916 31.9355 5.47453 31.9828 6.01119 31.9898C6.25823 31.9953 6.50097 31.9984 6.74566 31.9984C7.03796 32 7.32756 32 7.62063 32H79.3837C79.6709 32 79.9628 32 80.2501 31.9984C80.4936 31.9984 80.7434 31.9953 80.9869 31.9898C81.5225 31.9831 82.0569 31.9359 82.5854 31.8484C83.1159 31.7567 83.6299 31.5866 84.1105 31.3438C84.589 31.1006 85.0254 30.7823 85.4031 30.4008C85.7836 30.0226 86.1023 29.5868 86.3475 29.1094C86.5888 28.6297 86.7557 28.116 86.8423 27.5859C86.9314 27.0565 86.981 26.5212 86.9906 25.9844C86.9938 25.7359 86.9938 25.4953 86.9938 25.2469C87 24.9562 87 24.6672 87 24.3718V7.6289C87 7.33594 87 7.04531 86.9938 6.75547C86.9938 6.51016 86.9938 6.26406 86.9906 6.01875C86.981 5.48194 86.9314 4.94659 86.8423 4.41715C86.7554 3.88743 86.5886 3.374 86.3475 2.8945C85.8541 1.93216 85.0718 1.14882 84.1105 0.654656C83.6299 0.412454 83.1159 0.243392 82.5854 0.153056C82.057 0.0648822 81.5226 0.0176062 80.9869 0.011648C80.7434 0.007744 80.4936 0.003056 80.2501 0.001496C79.9628 0 79.6709 0 79.3837 0Z" fill="#A6A6A6"/>
<path d="M6.74956 31.3C6.50604 31.3 6.26841 31.2969 6.0268 31.2915C5.52629 31.2849 5.02696 31.2413 4.53288 31.161C4.07219 31.0816 3.62589 30.9338 3.20873 30.7227C2.79539 30.5132 2.41839 30.2386 2.09217 29.9094C1.76123 29.584 1.48571 29.2066 1.27653 28.7922C1.06503 28.375 0.91867 27.9279 0.842531 27.4664C0.760307 26.9705 0.715821 26.4691 0.709455 25.9664C0.704388 25.7977 0.697754 25.2359 0.697754 25.2359V6.75548C0.697754 6.75548 0.704819 6.20236 0.709495 6.03985C0.71559 5.538 0.759818 5.03733 0.841795 4.5422C0.918075 4.07941 1.06455 3.63101 1.27616 3.21252C1.48457 2.79837 1.75857 2.4207 2.08751 2.09416C2.41609 1.76451 2.79429 1.4885 3.20834 1.27618C3.62454 1.06569 4.06999 0.918998 4.52976 0.841028C5.02545 0.759881 5.52652 0.716009 6.02877 0.70978L6.74995 0.700012H80.2461L80.9759 0.710172C81.4736 0.716092 81.9701 0.759572 82.4612 0.840244C82.9257 0.919192 83.3757 1.0669 83.7967 1.27852C84.6262 1.7064 85.3011 2.38334 85.7269 3.21447C85.9352 3.63007 86.0794 4.07482 86.1547 4.53361C86.2377 5.03281 86.2841 5.53741 86.2936 6.04338C86.296 6.26994 86.296 6.5133 86.296 6.75549C86.3023 7.05549 86.3023 7.34104 86.3023 7.62892V24.3719C86.3023 24.6625 86.3023 24.9461 86.296 25.232C86.296 25.4922 86.296 25.7305 86.2928 25.9758C86.2835 26.4727 86.2379 26.9683 86.1562 27.4586C86.0817 27.9234 85.9361 28.374 85.7247 28.7946C85.514 29.2045 85.2401 29.5786 84.9129 29.9031C84.5864 30.2342 84.2088 30.5104 83.7945 30.7211C83.3747 30.9339 82.9252 31.0822 82.4613 31.161C81.9673 31.2417 81.4679 31.2854 80.9673 31.2915C80.7332 31.2969 80.4881 31.3 80.2501 31.3L79.3837 31.3016L6.74956 31.3Z" fill="black"/>
<path d="M32.9032 13.2437H29.665L28.8873 15.5421H27.5157L30.583 7.0387H32.008L35.0752 15.5421H33.6802L32.9032 13.2437ZM30.0003 12.1831H32.5672L31.3018 8.45302H31.2664L30.0003 12.1831Z" fill="white"/>
<path d="M41.6993 12.4425C41.6993 14.3691 40.6691 15.6069 39.1145 15.6069C38.7206 15.6275 38.329 15.5367 37.9843 15.3449C37.6397 15.1531 37.3559 14.868 37.1656 14.5223H37.1362V17.593H35.8649V9.34237H37.0955V10.3736H37.1189C37.3179 10.0295 37.6065 9.74589 37.9537 9.5529C38.301 9.3599 38.6941 9.26475 39.0911 9.27757C40.6631 9.27752 41.6993 10.5213 41.6993 12.4425ZM40.3925 12.4425C40.3925 11.1873 39.7445 10.3622 38.7557 10.3622C37.7843 10.3622 37.1309 11.2048 37.1309 12.4425C37.1309 13.6917 37.7843 14.5283 38.7557 14.5283C39.7445 14.5283 40.3925 13.7091 40.3925 12.4425H40.3925Z" fill="white"/>
<path d="M48.5168 12.4425C48.5168 14.3691 47.4863 15.6069 45.9317 15.6069C45.5378 15.6275 45.1462 15.5367 44.8015 15.3449C44.4569 15.1531 44.1731 14.868 43.9828 14.5223H43.9534V17.593H42.6821V9.34237H43.9127V10.3736H43.9361C44.1351 10.0295 44.4237 9.74589 44.7709 9.5529C45.1182 9.3599 45.5113 9.26475 45.9083 9.27757C47.4803 9.27752 48.5168 10.5213 48.5168 12.4425ZM47.2097 12.4425C47.2097 11.1873 46.5617 10.3622 45.5729 10.3622C44.6015 10.3622 43.9481 11.2048 43.9481 12.4425C43.9481 13.6917 44.6015 14.5283 45.5729 14.5283C46.5617 14.5283 47.2097 13.7091 47.2097 12.4425H47.2097Z" fill="white"/>
<path d="M53.0218 13.1728C53.116 14.016 53.9344 14.5697 55.0528 14.5697C56.1244 14.5697 56.8954 14.016 56.8954 13.2557C56.8954 12.5957 56.4304 12.2005 55.3294 11.9297L54.2284 11.6642C52.6684 11.287 51.9442 10.5568 51.9442 9.37182C51.9442 7.90462 53.2215 6.89691 55.0347 6.89691C56.8306 6.89691 58.0612 7.90466 58.1026 9.37182H56.8192C56.7424 8.52322 56.0415 8.01102 55.0174 8.01102C53.9932 8.01102 53.2924 8.52928 53.2924 9.28359C53.2924 9.88477 53.7399 10.2385 54.835 10.5093L55.771 10.7394C57.514 11.152 58.2376 11.8528 58.2376 13.0966C58.2376 14.6875 56.9722 15.6839 54.9586 15.6839C53.0746 15.6839 51.8025 14.7109 51.7203 13.1728L53.0218 13.1728Z" fill="white"/>
<path d="M60.9828 7.87524V9.34244H62.1606V10.3502H60.9828V13.768C60.9828 14.2989 61.2186 14.5464 61.7364 14.5464C61.8762 14.5439 62.0158 14.5341 62.1546 14.517V15.5187C61.9218 15.5622 61.6852 15.5819 61.4484 15.5775C60.1944 15.5775 59.7054 15.1061 59.7054 13.9038V10.3502H58.8048V9.34238H59.7054V7.87518L60.9828 7.87524Z" fill="white"/>
<path d="M62.842 12.4426C62.842 10.4919 63.9898 9.26617 65.7796 9.26617C67.5755 9.26617 68.7179 10.4919 68.7179 12.4426C68.7179 14.3986 67.5815 15.619 65.7796 15.619C63.9785 15.619 62.842 14.3986 62.842 12.4426ZM67.4225 12.4426C67.4225 11.1045 66.8098 10.3147 65.7796 10.3147C64.7494 10.3147 64.1368 11.1105 64.1368 12.4426C64.1368 13.786 64.7494 14.5698 65.7796 14.5698C66.8098 14.5698 67.4225 13.786 67.4225 12.4426Z" fill="white"/>
<path d="M69.7661 9.3424H70.9787V10.3976H71.0081C71.0901 10.068 71.283 9.77679 71.5543 9.57281C71.8256 9.36883 72.1588 9.26455 72.4979 9.2775C72.6444 9.27699 72.7905 9.29292 72.9335 9.32498V10.5153C72.7485 10.4587 72.5556 10.4327 72.3623 10.4384C72.1776 10.4309 71.9934 10.4635 71.8225 10.5339C71.6516 10.6044 71.4979 10.711 71.372 10.8466C71.2462 10.9821 71.1511 11.1432 71.0933 11.319C71.0356 11.4948 71.0165 11.681 71.0374 11.8648V15.5421H69.7661V9.3424Z" fill="white"/>
<path d="M78.7954 13.7211C78.6556 14.307 78.3083 14.8223 77.8179 15.1713C77.3274 15.5203 76.7271 15.6793 76.1284 15.619C74.3265 15.619 73.2081 14.4106 73.2081 12.472C73.2081 10.5274 74.3325 9.26617 76.0749 9.26617C77.7886 9.26617 78.8662 10.4444 78.8662 12.3242V12.7602H74.4915V12.8371C74.4714 13.0653 74.4999 13.2951 74.5753 13.5114C74.6506 13.7277 74.7711 13.9254 74.9287 14.0915C75.0863 14.2576 75.2774 14.3882 75.4893 14.4747C75.7012 14.5612 75.9291 14.6016 76.1578 14.5932C76.4582 14.6213 76.7597 14.5517 77.0174 14.3946C77.2751 14.2375 77.4753 14.0013 77.5881 13.7212L78.7954 13.7211ZM74.4976 11.8708H77.5942C77.6056 11.6657 77.5745 11.4604 77.5029 11.2678C77.4313 11.0752 77.3207 10.8996 77.178 10.7518C77.0354 10.6041 76.8637 10.4874 76.6739 10.4092C76.4841 10.331 76.2801 10.2929 76.0749 10.2973C75.8679 10.2961 75.6626 10.3359 75.4711 10.4145C75.2795 10.4931 75.1053 10.6088 74.9587 10.7551C74.8121 10.9014 74.6958 11.0753 74.6166 11.2668C74.5375 11.4583 74.497 11.6636 74.4976 11.8708Z" fill="white"/>
<path d="M29.122 24.6492L29.1747 23.9937C29.4202 24.073 29.6765 24.1139 29.9345 24.1148C30.1679 24.1148 30.2581 24.0922 30.3712 23.9336C30.6464 23.357 30.7656 22.7183 30.717 22.0812C30.717 21.4031 30.5067 21.207 29.9724 21.207C29.8518 21.207 29.7164 21.2148 29.5657 21.2226C29.2782 22.3923 28.8004 23.5066 28.1514 24.521L27.5266 24.182C28.1362 23.3053 28.5823 22.3254 28.8434 21.2898C28.4311 21.3344 28.0217 21.4025 27.6172 21.4937L27.4818 20.8304C27.9407 20.7476 28.4898 20.6726 29.0014 20.6273C29.1066 20.1272 29.1845 19.6218 29.2348 19.1132L29.9724 19.196C29.9045 19.6554 29.8218 20.1156 29.7164 20.5671H30.0099C30.9656 20.5671 31.4245 21.0413 31.4245 22.0507C31.466 22.8209 31.3161 23.5894 30.9882 24.2874C30.9019 24.4479 30.7701 24.5792 30.6094 24.665C30.4488 24.7507 30.2664 24.7871 30.0852 24.7695C29.7605 24.7673 29.4372 24.7269 29.122 24.6492ZM31.5447 20.5898L32.0942 20.2203C32.8561 20.9559 33.3151 21.9503 33.3809 23.0078L32.6585 23.1203C32.6532 22.6451 32.5518 22.1759 32.3604 21.741C32.169 21.3061 31.8915 20.9145 31.5447 20.5898Z" fill="white"/>
<path d="M35.8758 24.7547L35.7256 24.0766C35.9137 24.0922 36.1619 24.0992 36.3125 24.0992C37.8022 24.0992 38.3665 23.6781 38.3665 23.0524C38.3665 22.5555 38.0429 22.2696 37.3206 22.2696C36.533 22.3418 35.7993 22.701 35.2588 23.2789L34.6793 23.0227C34.5695 22.0361 34.7949 21.0412 35.319 20.1984L35.9886 20.4164C35.5714 20.9804 35.3687 21.6748 35.4169 22.375C36.0204 21.949 36.7335 21.7057 37.4712 21.6742C38.4797 21.6742 39.1041 22.1937 39.1041 23.0375C39.1041 24.107 38.2612 24.7625 36.2373 24.7625C36.1393 24.7625 35.9964 24.7547 35.8758 24.7547ZM35.1761 19.7539L35.3642 19.0906C36.3653 19.2439 37.3537 19.4706 38.3216 19.7688L38.1409 20.4242C37.1748 20.1121 36.1825 19.8878 35.1761 19.7539V19.7539Z" fill="white"/>
<path d="M41.2833 24.2352C42.0593 23.9795 42.7563 23.528 43.3072 22.9242C42.8708 22.5622 42.3995 22.2445 41.9003 21.9758L42.314 21.4563C42.8173 21.7125 43.2959 22.0148 43.7435 22.3594C44.103 21.8346 44.3538 21.243 44.4811 20.6195H42.5622C42.1213 21.3345 41.5673 21.973 40.9219 22.5102L40.3724 22.036C41.3013 21.269 42.0211 20.2791 42.4646 19.1586L43.187 19.3321C43.1043 19.543 43.0216 19.761 42.9236 19.9649H44.7898L45.3241 20.2133C45.1945 21.2356 44.791 22.2037 44.1565 23.0152C43.5219 23.8266 42.6799 24.4512 41.7196 24.8227L41.2833 24.2352ZM44.4585 18.9781L44.8799 18.7742C45.0939 19.0609 45.2732 19.3719 45.4142 19.7008L44.94 19.9195C44.8207 19.5863 44.6588 19.2699 44.4585 18.9781ZM45.399 18.9023L45.8279 18.6992C46.0447 18.9949 46.2289 19.3131 46.3774 19.6484L45.9032 19.8516C45.7771 19.5145 45.6076 19.1954 45.399 18.9023H45.399Z" fill="white"/>
<path d="M48.6916 24.7922L48.308 24.182C49.0834 24.0582 49.7848 23.649 50.2747 23.0348C50.7646 22.4205 51.0078 21.6453 50.9567 20.8609H47.7964V22.375H47.0361V20.2203H48.925V19.1133H49.6848V20.2203H51.0921L51.7844 20.4164C51.6939 22.5555 50.9793 24.1898 48.6916 24.7922Z" fill="white"/>
<path d="M53.2483 20.2734L53.6698 19.6555C54.328 19.9566 54.9491 20.3334 55.5204 20.7781L55.0388 21.4258C54.4905 20.9708 53.8893 20.5839 53.2483 20.2734ZM53.3911 23.9867C54.3118 23.848 55.1861 23.4913 55.9413 22.9463C56.6966 22.4013 57.3109 21.6837 57.7332 20.8531L58.2296 21.4109C57.771 22.2685 57.1224 23.0097 56.3333 23.5775C55.5443 24.1453 54.6358 24.5247 53.6776 24.6867L53.3911 23.9867Z" fill="white"/>
<path d="M64.3965 24.3484H59.6634V19.8664H64.3965L64.3965 24.3484ZM60.4088 20.5594V23.6555H63.644V20.5594H60.4088Z" fill="white"/>
<path d="M71.173 22.3367H65.853V21.5687H71.173V22.3367Z" fill="white"/>
<path d="M72.983 19.1359H73.7276V21.0641C74.718 21.4766 75.6785 21.9575 76.6023 22.5031L76.1808 23.1656C75.398 22.6641 74.5779 22.2235 73.7277 21.8476V24.7547H72.983V19.1359ZM74.7509 19.543L75.195 19.332C75.4125 19.6514 75.592 19.9951 75.7297 20.3562L75.2403 20.575C75.1225 20.2112 74.958 19.8643 74.7509 19.543H74.7509ZM75.6087 19.2187L76.0606 19.0078C76.289 19.3253 76.4785 19.6692 76.6249 20.032L76.1356 20.2507C76.0013 19.8871 75.8245 19.5407 75.6087 19.2187H75.6087Z" fill="white"/>
<path d="M19.7966 16.2405C19.8052 15.5728 19.9824 14.9181 20.3117 14.3373C20.641 13.7566 21.1117 13.2686 21.6801 12.9189C21.319 12.4028 20.8427 11.978 20.289 11.6784C19.7352 11.3787 19.1193 11.2125 18.4901 11.1928C17.148 11.0517 15.8468 11.9966 15.1629 11.9966C14.4658 11.9966 13.4127 11.2068 12.2788 11.2301C11.5454 11.2538 10.8305 11.4673 10.204 11.8498C9.57752 12.2322 9.06066 12.7706 8.70382 13.4124C7.15806 16.0911 8.31105 20.028 9.79176 22.1933C10.5326 23.2535 11.3984 24.4379 12.5313 24.3959C13.6399 24.3499 14.054 23.6883 15.3922 23.6883C16.7179 23.6883 17.1064 24.3959 18.2623 24.3692C19.4519 24.3499 20.2014 23.3042 20.9162 22.2339C21.4485 21.4784 21.8581 20.6434 22.1298 19.7599C21.4387 19.4673 20.8489 18.9776 20.434 18.3517C20.0191 17.7259 19.7974 16.9916 19.7966 16.2405Z" fill="white"/>
<path d="M17.6133 9.76869C18.2619 8.98933 18.5815 7.98758 18.5041 6.9762C17.5132 7.08037 16.5978 7.55442 15.9404 8.30388C15.619 8.67002 15.3728 9.09597 15.216 9.55738C15.0591 10.0188 14.9947 10.5066 15.0263 10.993C15.522 10.9981 16.0123 10.8906 16.4604 10.6785C16.9085 10.4664 17.3027 10.1554 17.6133 9.76869Z" fill="white"/>
</g>
<defs>
<clipPath id="clip0_2517_25164">
<rect width="87" height="32" fill="white"/>
</clipPath>
</defs>
</svg>
