<svg width="39" height="39" viewBox="0 0 39 39" fill="none" xmlns="http://www.w3.org/2000/svg">
<path d="M14.8264 28.7453L10.5814 30.1667L8.28594 30.7143L8.87586 28.4612L10.2725 24.1914M14.8264 28.7453C14.3166 27.4116 13.8117 26.9263 12.5494 26.4683C12.0308 25.2068 11.5436 24.7011 10.2725 24.1914M14.8264 28.7453L32.2859 11.2857L34.5716 9.00004M10.2725 24.1914L27.732 6.73185L32.3856 2.07824C32.9714 1.49245 33.9212 1.49245 34.5069 2.07824L36.9395 4.51081C37.5253 5.0966 37.5253 6.04634 36.9395 6.63213L34.5716 9.00004M30.0001 4.42857L34.5716 9.00004" stroke="#666666" stroke-width="1.5" stroke-linejoin="round"/>
<path d="M26 2H1V38H37V13" stroke="#666666" stroke-width="1.5" stroke-linecap="round" stroke-linejoin="round"/>
</svg>
