<svg width="32" height="32" viewBox="0 0 32 32" fill="none" xmlns="http://www.w3.org/2000/svg">
<circle cx="16" cy="16" r="16" fill="#4A99E9"/>
<path d="M23.633 11.997C23.646 12.172 23.646 12.346 23.646 12.52C23.646 17.845 19.593 23.981 12.186 23.981C9.904 23.981 7.784 23.32 6 22.172C6.324 22.209 6.636 22.222 6.973 22.222C8.78599 22.2264 10.5476 21.6202 11.974 20.501C11.1334 20.4858 10.3186 20.2085 9.64324 19.7078C8.9679 19.2071 8.46578 18.5079 8.207 17.708C8.456 17.745 8.706 17.77 8.968 17.77C9.329 17.77 9.692 17.72 10.029 17.633C9.11676 17.4489 8.29647 16.9544 7.70762 16.2337C7.11876 15.5131 6.79769 14.6107 6.799 13.68V13.63C7.336 13.929 7.959 14.116 8.619 14.141C8.06609 13.7736 7.61272 13.2751 7.29934 12.6898C6.98596 12.1046 6.82231 11.4509 6.823 10.787C6.823 10.039 7.022 9.35304 7.371 8.75504C8.38314 10.0001 9.6455 11.0186 11.0763 11.7447C12.5072 12.4708 14.0746 12.8883 15.677 12.97C15.615 12.67 15.577 12.359 15.577 12.047C15.5767 11.518 15.6807 10.9941 15.8831 10.5053C16.0854 10.0165 16.3821 9.57232 16.7562 9.19823C17.1303 8.82414 17.5744 8.52745 18.0632 8.32512C18.5521 8.12279 19.076 8.01878 19.605 8.01904C20.765 8.01904 21.812 8.50504 22.548 9.29104C23.4498 9.11666 24.3145 8.78747 25.104 8.31804C24.8034 9.24886 24.1738 10.0381 23.333 10.538C24.1328 10.4468 24.9144 10.2365 25.652 9.91404C25.1011 10.7171 24.4185 11.4214 23.633 11.997Z" fill="white"/>
</svg>
