<svg width="56" height="56" viewBox="0 0 56 56" fill="none" xmlns="http://www.w3.org/2000/svg">
<path d="M8.5637 16.9696C7.6112 16.9696 6.84669 16.7326 6.27017 16.2586C5.70619 15.7971 5.42419 15.1797 5.42419 14.4064C5.42419 14.2816 5.43046 14.1819 5.44299 14.107H7.56733C7.5548 14.4188 7.64253 14.6683 7.83052 14.8554C8.03105 15.0425 8.30051 15.136 8.6389 15.136H10.2933C10.7946 15.136 11.2144 14.9614 11.5528 14.6122C11.8912 14.2629 12.1105 13.7827 12.2108 13.1715L12.3988 12.1051C12.0729 12.4169 11.722 12.6664 11.346 12.8535C10.9826 13.0281 10.6442 13.1154 10.3308 13.1154H9.03369C8.03105 13.1154 7.23521 12.8535 6.64616 12.3296C6.05711 11.8057 5.76258 11.101 5.76258 10.2154C5.76258 10.0782 5.78765 9.835 5.83778 9.48575L6.17617 7.48383C6.38923 6.29889 6.86549 5.36965 7.60493 4.6961C8.34437 4.02256 9.26555 3.68579 10.3684 3.68579H11.534C12.0228 3.68579 12.474 3.79181 12.8876 4.00385C13.3137 4.20342 13.627 4.47159 13.8275 4.80836L13.9967 3.83546H16.0271L14.3727 13.1715C14.1597 14.3689 13.6834 15.2982 12.944 15.9593C12.2171 16.6328 11.3084 16.9696 10.2181 16.9696H8.5637ZM10.5752 11.2819C11.1016 11.2819 11.5841 11.0698 12.0228 10.6457C12.474 10.2217 12.781 9.67285 12.944 8.9993L13.2448 7.37157C13.2824 6.83523 13.1633 6.39867 12.8876 6.0619C12.6118 5.71265 12.2359 5.53803 11.7596 5.53803H10.4436C9.8922 5.53803 9.42221 5.72513 9.03369 6.09932C8.6577 6.47351 8.41957 6.97867 8.31931 7.61479L8.01852 9.35478C7.99345 9.46704 7.98092 9.62919 7.98092 9.84123C7.98092 10.2903 8.09372 10.6457 8.31931 10.9077C8.5449 11.1571 8.85823 11.2819 9.25928 11.2819H10.5752Z" fill="#333333"/>
<path d="M18.8974 3.83546H20.9089L20.6833 5.10771C21.0217 4.70857 21.429 4.39051 21.9053 4.15352C22.3815 3.91654 22.8703 3.79804 23.3716 3.79804H24.5748L24.2364 5.669H23.1084C22.3941 5.669 21.78 5.88728 21.2661 6.32383C20.7523 6.76039 20.4327 7.32791 20.3073 8.02641L19.405 13.1715H17.243L18.8974 3.83546Z" fill="#333333"/>
<path d="M28.1354 13.3212C27.045 13.3212 26.1865 13.0718 25.5599 12.5728C24.9332 12.0614 24.6199 11.3754 24.6199 10.5148C24.6199 10.3027 24.6387 10.0845 24.6763 9.85994L25.1087 7.35286C25.3092 6.20534 25.7855 5.30728 26.5374 4.65868C27.302 4.01008 28.2545 3.68579 29.395 3.68579H30.8989C31.9391 3.68579 32.7663 3.95396 33.3804 4.4903C33.9946 5.02664 34.3016 5.7376 34.3016 6.62319C34.3016 6.82276 34.2828 7.04727 34.2452 7.29673L33.9256 9.1864H26.9322L26.8194 9.85994C26.8069 9.93478 26.8006 10.0408 26.8006 10.178C26.8006 10.5896 26.926 10.9139 27.1766 11.1509C27.4273 11.3879 27.7719 11.5064 28.2106 11.5064H29.6769C30.2033 11.5064 30.6357 11.3879 30.9741 11.1509C31.3125 10.9139 31.5193 10.5896 31.5945 10.178H33.7C33.5371 11.1634 33.0922 11.9367 32.3653 12.498C31.6509 13.0468 30.736 13.3212 29.6205 13.3212H28.1354ZM32.0833 7.57737L32.1209 7.33415C32.1459 7.22189 32.1585 7.07222 32.1585 6.88512C32.1585 6.44856 32.0394 6.10556 31.8013 5.85609C31.5632 5.60663 31.2373 5.4819 30.8237 5.4819H29.2822C28.7683 5.4819 28.3234 5.65653 27.9474 6.00577C27.5839 6.34254 27.3458 6.80405 27.233 7.39028L27.1954 7.57737H32.0833Z" fill="#333333"/>
<path d="M37.7321 5.68771H36.1153L36.4349 3.83546H38.0517L38.1833 3.18063C38.3713 2.13289 38.8036 1.34085 39.4804 0.804512C40.1697 0.26817 41.0846 0 42.2251 0H43.3531L43.0147 1.83354H41.9243C41.4857 1.83354 41.1348 1.93956 40.8716 2.1516C40.6084 2.35117 40.4267 2.70041 40.3264 3.19934L40.2136 3.83546H42.4695L42.1499 5.68771H39.894L38.5592 13.1715H36.3973L37.7321 5.68771Z" fill="#333333"/>
<path d="M45.1968 5.68771H43.58L43.8996 3.83546H45.5164L45.648 3.18063C45.836 2.13289 46.2683 1.34085 46.9451 0.804512C47.6344 0.26817 48.5493 0 49.6898 0H50.8178L50.4794 1.83354H49.389C48.9504 1.83354 48.5995 1.93956 48.3363 2.1516C48.0731 2.35117 47.8914 2.70041 47.7911 3.19934L47.6783 3.83546H49.9342L49.6146 5.68771H47.3587L46.0239 13.1715H43.862L45.1968 5.68771Z" fill="#333333"/>
<path fill-rule="evenodd" clip-rule="evenodd" d="M16.1691 37.7071C16.1692 36.652 17.0245 35.7968 18.0796 35.7968C19.1347 35.7968 19.99 36.652 19.9901 37.7071H21.1658C21.1659 36.652 22.0212 35.7968 23.0763 35.7968C24.1313 35.7968 24.9867 36.652 24.9868 37.7071H26.1625C26.1624 36.0027 24.7807 34.6211 23.0763 34.6211C22.049 34.6211 21.1389 35.123 20.5779 35.8951C20.017 35.123 19.1069 34.6211 18.0796 34.6211C17.0523 34.6211 16.1422 35.123 15.5812 35.8951C15.0203 35.123 14.1102 34.6211 13.0829 34.6211C12.0555 34.6211 11.1454 35.1231 10.5844 35.8952C10.0235 35.1232 9.11344 34.6213 8.08619 34.6213C6.38188 34.6213 5.00023 36.0028 5 37.7071H6.17569C6.17593 36.6522 7.0312 35.797 8.08619 35.797C9.14119 35.797 9.99646 36.6522 9.99669 37.7071H11.1724C11.1725 36.652 12.0278 35.7968 13.0829 35.7968C14.138 35.7968 14.9933 36.652 14.9934 37.7071H16.1691Z" fill="#5AD0FF"/>
<path fill-rule="evenodd" clip-rule="evenodd" d="M19.9901 43.4389C19.9901 43.4388 19.9901 43.4388 19.9901 43.4387C19.9901 42.3836 19.1347 41.5282 18.0796 41.5282C17.0245 41.5282 16.1691 42.3836 16.1691 43.4387C16.1691 43.4388 16.1691 43.4388 16.1691 43.4389H14.9934C14.9934 43.4388 14.9934 43.4388 14.9934 43.4387C14.9934 42.3836 14.138 41.5282 13.0829 41.5282C12.0278 41.5282 11.1724 42.3836 11.1724 43.4387C11.1724 43.4388 11.1724 43.4388 11.1724 43.4389H9.99669C9.99669 43.4389 9.99669 43.4388 9.99669 43.4388C9.99669 42.3837 9.14133 41.5283 8.08619 41.5283C7.03105 41.5283 6.17569 42.3837 6.17569 43.4388C6.17569 43.4388 6.17569 43.4389 6.17569 43.4389H5C5 43.4389 5 43.4388 5 43.4388C5 41.7344 6.38173 40.3526 8.08619 40.3526C9.11348 40.3526 10.0235 40.8546 10.5845 41.6266C11.1455 40.8545 12.0556 40.3525 13.0829 40.3525C14.1102 40.3525 15.0203 40.8545 15.5812 41.6265C16.1422 40.8545 17.0523 40.3525 18.0796 40.3525C19.1069 40.3525 20.017 40.8545 20.5779 41.6265C21.1389 40.8545 22.049 40.3525 23.0763 40.3525C24.7807 40.3525 26.1625 41.7343 26.1625 43.4387C26.1625 43.4388 26.1625 43.4388 26.1625 43.4389H24.9868C24.9868 43.4388 24.9868 43.4388 24.9868 43.4387C24.9868 42.3836 24.1314 41.5282 23.0763 41.5282C22.0211 41.5282 21.1658 42.3836 21.1658 43.4387C21.1658 43.4388 21.1658 43.4388 21.1658 43.4389H19.9901Z" fill="#5AD0FF"/>
<path fill-rule="evenodd" clip-rule="evenodd" d="M46.2183 43.4386L46.2184 43.4388H29.9057L38.0621 34.6211L44.1791 41.2341L46.659 38.3999L51.0679 43.4386H46.2183Z" fill="#45D1D1"/>
<path fill-rule="evenodd" clip-rule="evenodd" d="M51.0682 22.0605H29.9057V30.8782H51.0682V22.0605ZM36.0778 24.7052H31.669V30.8775H36.0778V24.7052ZM42.6911 24.7052H38.2823V30.8776H42.6911V24.7052ZM44.8958 24.7052H49.3046V30.8776H44.8958V24.7052Z" fill="#FECF05"/>
<path fill-rule="evenodd" clip-rule="evenodd" d="M12.0541 47.1816H5V51.5909V55.9993V55.9997H26.1625V51.5909H12.0541V47.1816Z" fill="#3D97EB"/>
<rect x="29.9052" y="54.2363" width="21.1624" height="1.76354" fill="#B492FF"/>
<rect x="34.314" y="47.1816" width="12.3448" height="1.76354" fill="#B492FF"/>
<rect x="31.6689" y="50.709" width="17.6354" height="1.76354" fill="#B492FF"/>
<path fill-rule="evenodd" clip-rule="evenodd" d="M26.3105 32.7099C26.3106 32.6872 26.3107 32.6645 26.3107 32.6418C26.3107 32.6191 26.3106 32.5964 26.3105 32.5737V32.7099ZM26.1623 30.8778C25.3108 25.8736 20.8975 22.0605 15.5811 22.0605C10.2648 22.0605 5.85154 25.8736 5 30.8778H26.1623Z" fill="#F0513E"/>
</svg>
