<svg width="122" height="20" viewBox="0 0 122 20" fill="none" xmlns="http://www.w3.org/2000/svg">
<path fill-rule="evenodd" clip-rule="evenodd" d="M112.383 2.79881C112.384 1.84204 113.159 1.06659 114.116 1.06659C115.053 1.06659 115.816 1.80933 115.848 2.73788C115.848 2.75814 115.848 2.77845 115.848 2.79881H116.916C116.916 2.77844 116.916 2.75812 116.915 2.73786C116.948 1.80932 117.711 1.06659 118.647 1.06659C119.604 1.06659 120.38 1.84204 120.381 2.79881H121.447C121.447 1.25298 120.193 0 118.647 0C117.716 0 116.891 0.454839 116.382 1.15453C115.873 0.454839 115.048 0 114.116 0C113.184 0 112.357 0.456004 111.849 1.15721C111.34 0.456004 110.514 0 109.581 0C108.65 0 107.824 0.454856 107.315 1.15457C106.806 0.454902 105.981 8.13802e-05 105.05 8.13802e-05C103.504 8.13802e-05 102.251 1.25302 102.25 2.79881H103.317C103.317 1.84208 104.093 1.06667 105.05 1.06667C105.986 1.06667 106.749 1.8094 106.782 2.73793C106.781 2.75817 106.781 2.77846 106.781 2.79881H107.85C107.85 2.77846 107.849 2.75816 107.849 2.73791C107.882 1.80935 108.645 1.06659 109.581 1.06659C110.538 1.06659 111.314 1.84204 111.314 2.79881H112.383Z" fill="#5AD0FF"/>
<path fill-rule="evenodd" clip-rule="evenodd" d="M112.383 7.99976C112.383 7.99947 112.383 7.99918 112.383 7.99889C112.383 7.04167 113.159 6.26569 114.116 6.26569C115.053 6.26569 115.816 7.00843 115.848 7.93697C115.848 7.95756 115.848 7.9782 115.848 7.99889C115.848 7.99918 115.848 7.99947 115.848 7.99976H116.916C116.916 7.99947 116.916 7.99918 116.916 7.99889C116.916 7.9782 116.916 7.95755 116.915 7.93696C116.948 7.00842 117.711 6.26569 118.647 6.26569C119.605 6.26569 120.381 7.04167 120.381 7.99889C120.381 7.99918 120.381 7.99947 120.381 7.99976H121.447C121.447 7.99947 121.447 7.99918 121.447 7.99889C121.447 6.45261 120.194 5.1991 118.647 5.1991C117.716 5.1991 116.891 5.65394 116.382 6.35362C115.873 5.65394 115.048 5.1991 114.116 5.1991C113.184 5.1991 112.357 5.6551 111.849 6.35631C111.34 5.6551 110.514 5.1991 109.581 5.1991C108.65 5.1991 107.824 5.65397 107.315 6.3537C106.806 5.65403 105.981 5.19921 105.05 5.19921C103.504 5.19921 102.25 6.45272 102.25 7.99901C102.25 7.99926 102.25 7.99951 102.25 7.99976H103.317C103.317 7.99951 103.317 7.99926 103.317 7.99901C103.317 7.04179 104.093 6.2658 105.05 6.2658C105.986 6.2658 106.75 7.00874 106.782 7.93746C106.781 7.95788 106.781 7.97836 106.781 7.99889C106.781 7.99918 106.781 7.99947 106.781 7.99976H107.85C107.85 7.99951 107.85 7.99926 107.85 7.99901C107.85 7.97843 107.849 7.9579 107.849 7.93743C107.881 7.00867 108.644 6.26569 109.581 6.26569C110.538 6.26569 111.314 7.04167 111.314 7.99889C111.314 7.99918 111.314 7.99947 111.314 7.99976H112.383Z" fill="#5AD0FF"/>
<path fill-rule="evenodd" clip-rule="evenodd" d="M73.8492 19.999L73.8497 19.9996H59.0508L66.4503 12.0001L71.9996 17.9994L74.2497 15.4279L78.2494 19.999H73.8492Z" fill="#45D1D1"/>
<path fill-rule="evenodd" clip-rule="evenodd" d="M99.8471 0H80.6484V7.99944H99.8471V0ZM86.2497 2.39844H82.25V7.99805H86.2497V2.39844ZM92.2497 2.39844H88.25V7.99805H92.2497V2.39844ZM94.25 2.39844H98.2497V7.99805H94.25V2.39844Z" fill="#FECF05"/>
<path fill-rule="evenodd" clip-rule="evenodd" d="M87.048 12H80.6484V19.9994H80.6484V19.9998H99.8471V16.0001H87.048V12Z" fill="#3D97EB"/>
<rect x="102.25" y="18.4004" width="19.1987" height="1.59989" fill="#B492FF"/>
<rect x="106.25" y="12" width="11.1992" height="1.59989" fill="#B492FF"/>
<rect x="103.852" y="15.1992" width="15.9989" height="1.59989" fill="#B492FF"/>
<path fill-rule="evenodd" clip-rule="evenodd" d="M59.0527 8H78.2517C77.4796 3.4597 73.4756 0 68.6522 0C63.8289 0 59.8249 3.4597 59.0527 8Z" fill="#F0513E"/>
<path d="M3.71745 20C2.5896 20 1.68435 19.7207 1.00171 19.162C0.333902 18.6181 0 17.8905 0 16.979C0 16.832 0.00742009 16.7144 0.0222602 16.6262H2.53766C2.52282 16.9937 2.6267 17.2877 2.8493 17.5082C3.08674 17.7288 3.4058 17.839 3.80649 17.839H5.76538C6.35898 17.839 6.85613 17.6332 7.25681 17.2216C7.65749 16.81 7.91719 16.244 8.03591 15.5237L8.25852 14.2668C7.87267 14.6343 7.45715 14.9283 7.01195 15.1488C6.58158 15.3546 6.1809 15.4575 5.8099 15.4575H4.27395C3.08674 15.4575 2.14439 15.1488 1.44691 14.5314C0.749425 13.914 0.400683 13.0834 0.400683 12.0397C0.400683 11.878 0.430363 11.5913 0.489723 11.1797L0.890406 8.82027C1.14269 7.42373 1.70661 6.32855 2.58218 5.53472C3.45774 4.7409 4.54849 4.34399 5.85442 4.34399H7.23455C7.81331 4.34399 8.34756 4.46894 8.83728 4.71885C9.34184 4.95405 9.71285 5.27011 9.95029 5.66703L10.1506 4.52039H12.5547L10.5958 15.5237C10.3436 16.9349 9.77963 18.0301 8.90406 18.8092C8.04333 19.6031 6.96743 20 5.67634 20H3.71745ZM6.09928 13.2966C6.72257 13.2966 7.29391 13.0467 7.81331 12.5468C8.34756 12.047 8.71114 11.4002 8.90406 10.6064L9.26022 8.68797C9.30474 8.05585 9.16376 7.54133 8.83728 7.14442C8.5108 6.73281 8.0656 6.527 7.50167 6.527H5.94346C5.2905 6.527 4.73399 6.74751 4.27395 7.18852C3.82875 7.62954 3.54678 8.22491 3.42806 8.97463L3.0719 11.0253C3.04222 11.1576 3.02738 11.3488 3.02738 11.5987C3.02738 12.1279 3.16094 12.5468 3.42806 12.8555C3.69519 13.1496 4.06619 13.2966 4.54107 13.2966H6.09928Z" fill="white"/>
<path d="M15.9534 4.52039H18.3352L18.0681 6.01984C18.4688 5.54942 18.9511 5.17456 19.515 4.89525C20.0789 4.61594 20.6577 4.47629 21.2513 4.47629H22.676L22.2753 6.68136H20.9397C20.0938 6.68136 19.3666 6.93862 18.7582 7.45313C18.1497 7.96765 17.7713 8.63652 17.6229 9.45974L16.5544 15.5237H13.9945L15.9534 4.52039Z" fill="white"/>
<path d="M26.892 15.7001C25.6009 15.7001 24.5844 15.4061 23.8424 14.8181C23.1004 14.2153 22.7294 13.4068 22.7294 12.3925C22.7294 12.1426 22.7516 11.8853 22.7961 11.6207L23.3081 8.66592C23.5456 7.31348 24.1095 6.25504 24.9999 5.49062C25.9051 4.7262 27.033 4.34399 28.3834 4.34399H30.1642C31.396 4.34399 32.3754 4.66004 33.1026 5.29216C33.8298 5.92428 34.1933 6.76221 34.1933 7.80594C34.1933 8.04115 34.1711 8.30576 34.1265 8.59977L33.7481 10.8269H25.4674L25.3338 11.6207C25.319 11.7089 25.3115 11.8339 25.3115 11.9956C25.3115 12.4807 25.4599 12.8629 25.7567 13.1422C26.0535 13.4215 26.4616 13.5612 26.981 13.5612H28.7173C29.3406 13.5612 29.8526 13.4215 30.2533 13.1422C30.654 12.8629 30.8988 12.4807 30.9879 11.9956H33.481C33.2881 13.1569 32.7613 14.0683 31.9005 14.7299C31.0546 15.3767 29.9713 15.7001 28.6506 15.7001H26.892ZM31.5666 8.93053L31.6112 8.64387C31.6408 8.51157 31.6557 8.33516 31.6557 8.11465C31.6557 7.60014 31.5147 7.19587 31.2327 6.90186C30.9508 6.60786 30.5649 6.46085 30.0752 6.46085H28.2499C27.6414 6.46085 27.1146 6.66666 26.6694 7.07827C26.239 7.47518 25.9571 8.0191 25.8235 8.71002L25.779 8.93053H31.5666Z" fill="white"/>
<path d="M38.2553 6.70341H36.3409L36.7193 4.52039H38.6337L38.7895 3.74862C39.0121 2.51378 39.5241 1.5803 40.3255 0.94818C41.1417 0.31606 42.225 0 43.5755 0H44.9111L44.5104 2.16097H43.2193C42.6999 2.16097 42.2844 2.28592 41.9727 2.53583C41.6611 2.77104 41.4459 3.18265 41.3272 3.77067L41.1936 4.52039H43.8648L43.4864 6.70341H40.8152L39.2347 15.5237H36.6748L38.2553 6.70341Z" fill="white"/>
<path d="M47.0941 6.70341H45.1798L45.5582 4.52039H47.4726L47.6284 3.74862C47.851 2.51378 48.363 1.5803 49.1643 0.94818C49.9805 0.31606 51.0639 0 52.4143 0H53.7499L53.3492 2.16097H52.0581C51.5387 2.16097 51.1232 2.28592 50.8116 2.53583C50.4999 2.77104 50.2848 3.18265 50.166 3.77067L50.0325 4.52039H52.7037L52.3253 6.70341H49.6541L48.0736 15.5237H45.5137L47.0941 6.70341Z" fill="white"/>
</svg>
