<svg width="38" height="38" viewBox="0 0 38 38" fill="none" xmlns="http://www.w3.org/2000/svg">
<path d="M24.7782 4.73648L33.2635 13.2218M24.7782 4.73648L16.293 13.2218L24.7782 21.707L33.2635 13.2218M24.7782 4.73648C23.9972 3.95543 23.9972 2.6891 24.7782 1.90805C25.5593 1.127 26.8256 1.127 27.6067 1.90805L36.092 10.3933C36.873 11.1744 36.873 12.4407 36.092 13.2218C35.3109 14.0028 34.0446 14.0028 33.2635 13.2218M19.1214 10.3933L23.364 14.636M21.9498 7.56491L24.7782 10.3933M16.293 18.8786L19.1214 21.707L4.97926 35.8492L1 37L2.15083 33.0208L16.293 18.8786ZM10.7708 13.3564L24.6436 27.2292C24.7179 27.3036 24.8386 27.3036 24.9129 27.2292C26.4006 25.7415 26.4006 23.3294 24.9129 21.8417L16.1583 13.0871C14.6706 11.5994 12.2585 11.5994 10.7708 13.0871C10.6964 13.1615 10.6964 13.2821 10.7708 13.3564Z" stroke="#666666" stroke-width="1.5" stroke-linecap="round" stroke-linejoin="round"/>
</svg>
