<svg width="48" height="48" viewBox="0 0 48 48" fill="none" xmlns="http://www.w3.org/2000/svg">
<path d="M4.99999 16L4.99999 11C4.99999 10.4477 5.44771 10 5.99999 10L41 10C41.5523 10 42 10.4477 42 11L42 16M4.99999 16L4.99999 44C4.99999 44.5523 5.4477 45 5.99999 45L41 45C41.5523 45 42 44.5523 42 44L42 16M4.99999 16L42 16" stroke="#666666" stroke-width="1.5" stroke-linecap="round" stroke-linejoin="round"/>
<path d="M35 10L35 5C35 3.34315 33.6569 2 32 2V2C30.3431 2 29 3.34315 29 5L29 6" stroke="#666666" stroke-width="1.5" stroke-linecap="round" stroke-linejoin="round"/>
<path d="M17 10L17 5C17 3.34315 15.6569 2 14 2V2C12.3431 2 11 3.34315 11 5L11 6" stroke="#666666" stroke-width="1.5" stroke-linecap="round" stroke-linejoin="round"/>
<rect x="10" y="21" width="6" height="6" stroke="#666666" stroke-width="1.5" stroke-linecap="round" stroke-linejoin="round"/>
</svg>
